<svg width="102" height="23" viewBox="0 0 102 23" fill="none" xmlns="http://www.w3.org/2000/svg">
<g clip-path="url(#clip0_120_14728)">
<path fill-rule="evenodd" clip-rule="evenodd" d="M17.262 9.82667L12.4514 17.8821C14.3523 20.9712 15.9036 22.0558 18.9512 21.9455C21.9358 21.8374 25.3719 18.1133 23.4369 14.9265L18.619 7.09065C18.4467 7.61805 17.4396 9.48764 17.262 9.82671L17.262 9.82667ZM10.1434 19.5462C4.87861 25.6969 -2.71673 18.9085 0.977344 13.6241C0.977344 13.6241 4.90992 7.30254 6.43927 4.83972C7.6252 2.92989 8.95383 1.72804 10.6813 1.34279C12.7879 0.873007 15.2547 1.89461 16.5697 3.75779C17.4837 5.05256 18.2925 6.23768 16.8671 8.47618C16.6977 8.74208 10.4768 19.1567 10.1434 19.5462V19.5462ZM10.5191 8.16944C9.0802 7.40857 9.0802 5.49603 10.5191 4.73516C11.958 3.97428 13.7662 4.93053 13.7662 6.45228C13.7662 7.97402 11.9579 8.93032 10.5191 8.16944Z" fill="#5FD788"/>
</g>
<path d="M38.8125 16.2701H40.3184V9.08655H42.8438V7.81506H36.2812V9.08655H38.8125V16.2701ZM45.0293 16.3932C46.8516 16.3932 48.0352 15.1803 48.0352 13.1647V13.153C48.0352 11.149 46.834 9.9303 45.0234 9.9303C43.2188 9.9303 42.0234 11.1608 42.0234 13.153V13.1647C42.0234 15.1744 43.2012 16.3932 45.0293 16.3932ZM45.0352 15.2155C44.1035 15.2155 43.5117 14.4713 43.5117 13.1647V13.153C43.5117 11.8639 44.1152 11.1139 45.0234 11.1139C45.9492 11.1139 46.5469 11.858 46.5469 13.153V13.1647C46.5469 14.4655 45.9551 15.2155 45.0352 15.2155ZM51.0879 16.3932C52.0254 16.3932 52.6641 15.9596 52.9863 15.2975H53.0156V16.2701H54.4746V10.0592H53.0156V13.6569C53.0156 14.5592 52.4824 15.1627 51.6445 15.1627C50.8125 15.1627 50.4023 14.6647 50.4023 13.7858V10.0592H48.9434V14.0729C48.9434 15.5143 49.7227 16.3932 51.0879 16.3932ZM57.9844 16.3932C58.2773 16.3932 58.5352 16.3639 58.7051 16.3405V15.2448C58.6055 15.2506 58.4941 15.2682 58.3535 15.2682C57.8203 15.2682 57.5508 15.0748 57.5508 14.4655V11.1842H58.7051V10.0592H57.5508V8.48303H56.0684V10.0592H55.1895V11.1842H56.0684V14.5885C56.0684 15.8658 56.6836 16.3932 57.9844 16.3932ZM62.3203 16.3932C63.9434 16.3932 64.8574 15.4323 65.0508 14.4772L65.0684 14.4127H63.7031L63.6914 14.4537C63.5508 14.8698 63.0762 15.2565 62.3496 15.2565C61.4004 15.2565 60.8027 14.6119 60.7793 13.5221H65.127V13.0533C65.127 11.1783 64.0254 9.9303 62.25 9.9303C60.4746 9.9303 59.332 11.2194 59.332 13.1764V13.1823C59.332 15.1569 60.457 16.3932 62.3203 16.3932ZM62.2676 11.0729C63.041 11.0729 63.6035 11.5651 63.709 12.5494H60.7969C60.9141 11.5944 61.4941 11.0729 62.2676 11.0729ZM66.0703 16.2701H67.5293V12.4674C67.5293 11.7115 68.0215 11.1608 68.7246 11.1608C69.4043 11.1608 69.8262 11.5944 69.8262 12.2916V16.2701H71.2441V12.4323C71.2441 11.6823 71.7246 11.1608 72.4277 11.1608C73.1426 11.1608 73.541 11.6002 73.541 12.3678V16.2701H75V12.0045C75 10.7623 74.1973 9.9303 72.9727 9.9303C72.0762 9.9303 71.3379 10.4108 71.0391 11.1842H71.0039C70.7754 10.3873 70.1484 9.9303 69.2812 9.9303C68.4609 9.9303 67.8223 10.3756 67.5586 11.0553H67.5293V10.0592H66.0703V16.2701Z" fill="#1F2937"/>
<defs>
<clipPath id="clip0_120_14728">
<rect width="24" height="22.0144" fill="white" transform="translate(0 0.600708)"/>
</clipPath>
</defs>
</svg>
