<svg width="94" height="202" viewBox="0 0 94 202" fill="none" xmlns="http://www.w3.org/2000/svg">
<g clip-path="url(#clip0_120_14589)">
<path d="M34.9827 1.73714C34.8827 1.72044 34.8327 1.63692 34.8494 1.4866C34.3163 1.58682 33.8332 1.75385 33.7666 2.28833C34.3163 2.25493 34.7328 2.07119 34.9827 1.73714Z" fill="#BFD3B6" fill-opacity="0.6"/>
<path d="M53.9557 13.4612C54.0421 13.5479 53.9038 13.4092 53.9557 13.4612V13.4612Z" fill="#BFD3B6" fill-opacity="0.6"/>
<path d="M51.5078 22.3145C51.8576 21.6798 52.5406 21.3457 52.8071 20.6275C51.9409 20.2768 51.2079 21.6297 51.5078 22.3145Z" fill="#BFD3B6" fill-opacity="0.6"/>
<path d="M29.019 28.862C29.1856 28.9956 29.8186 28.8787 29.7519 28.4612C29.5021 28.244 28.9857 28.4612 29.019 28.862Z" fill="#BFD3B6" fill-opacity="0.6"/>
<path d="M46.2439 29.7972C46.7936 30.8494 45.1611 30.7492 44.8279 31.3672C45.4109 31.6344 46.0773 30.9162 46.6936 31.1501C46.7436 30.3483 48.0929 30.7492 47.8764 29.7137C47.0268 29.7972 46.9435 30.1145 46.2439 29.7972Z" fill="#BFD3B6" fill-opacity="0.6"/>
<path d="M37.8148 33.3215C38.7476 32.8539 38.9809 31.7515 39.5806 30.9999C38.2646 31.1001 38.3478 32.4864 37.8148 33.3215Z" fill="#BFD3B6" fill-opacity="0.6"/>
<path d="M41.846 58.4755C41.7294 58.4755 41.5962 58.4922 41.4796 58.4922C41.4962 58.8262 41.5129 59.1603 41.5295 59.4943C42.1792 59.6613 42.0626 58.726 41.846 58.4755Z" fill="#BFD3B6" fill-opacity="0.6"/>
<path d="M43.112 58.9098C43.0287 59.177 42.8455 59.628 43.0287 59.795C43.5451 59.8952 43.745 58.843 43.112 58.9098Z" fill="#BFD3B6" fill-opacity="0.6"/>
<path d="M48.3096 60.6802C47.8765 60.1791 47.0269 59.511 46.1606 59.9119C46.6104 60.4296 47.36 60.6635 48.3096 60.6802Z" fill="#BFD3B6" fill-opacity="0.6"/>
<path d="M48.4761 67.0271C48.043 66.5928 47.9097 66.3089 48.1596 65.6742C46.8935 66.2254 46.5437 64.2044 45.3776 64.6887C45.3776 64.8057 45.3943 64.9393 45.3943 65.0562C46.6936 65.3234 47.4266 66.9102 48.4761 67.0271Z" fill="#BFD3B6" fill-opacity="0.6"/>
<path d="M38.1979 65.6409C38.2145 65.4905 38.3811 65.4906 38.5644 65.4906C38.5477 65.2734 38.581 65.1064 38.6643 64.9895C38.2478 64.8893 37.848 65.4237 38.1979 65.6409Z" fill="#BFD3B6" fill-opacity="0.6"/>
<path d="M19.0072 70.5346C18.9073 70.8019 19.3571 71.0858 19.3904 70.7685C19.2071 70.7351 19.1738 70.568 19.0072 70.5346Z" fill="#BFD3B6" fill-opacity="0.6"/>
<path d="M21.8058 80.1387C21.8558 79.3537 22.189 77.6834 21.7892 77.2658C21.7892 78.0509 20.8729 79.6376 21.8058 80.1387Z" fill="#BFD3B6" fill-opacity="0.6"/>
<path d="M27.9363 80.7231C28.1029 80.0383 28.4527 77.9672 28.0029 76.9818C28.1528 78.2011 26.9701 79.9047 27.9363 80.7231Z" fill="#BFD3B6" fill-opacity="0.6"/>
<path d="M35.2158 167.426L35.1989 167.409C35.165 167.375 35.1989 167.409 35.2158 167.426Z" fill="#BFD3B6" fill-opacity="0.6"/>
<path d="M73.6462 179.969C73.6632 179.986 73.6632 179.986 73.6802 179.986C73.6632 179.986 73.6292 179.969 73.6462 179.969C73.6292 179.969 73.6292 179.969 73.6462 179.969Z" fill="#BFD3B6" fill-opacity="0.6"/>
<path d="M33.2665 190.091C33.3343 190.159 33.2665 190.091 33.2665 190.091V190.091Z" fill="#BFD3B6" fill-opacity="0.6"/>
<path d="M84.6581 165.221C86.1574 166.09 87.64 167.008 89.2559 167.76C87.3568 168.094 85.4244 166.223 83.5587 165.655C82.8757 165.956 82.2427 166.29 81.4764 166.507C82.8757 167.793 84.8414 168.478 86.5905 169.397C83.3088 169.497 80.8933 165.589 77.2951 167.559C78.5778 168.578 80.5935 169.53 81.6596 170.349C79.8772 170.716 78.0114 168.094 75.9458 167.877C74.3799 167.71 72.9473 168.662 70.9982 168.612C72.3975 168.862 73.5803 170.549 75.2128 170.783C76.7287 171 78.3946 170.349 79.2441 171.718C77.8782 171.267 76.7287 171.351 74.9962 171.418C75.6293 172.019 76.2789 172.637 76.8287 173.322C78.9943 173.556 81.4097 173.506 82.5092 174.925C80.9766 174.608 79.6606 174.04 77.7449 174.157C77.9614 174.691 78.9276 175.56 79.3441 176.328C81.0433 176.562 82.859 176.662 83.8918 177.614C82.9423 177.748 81.6096 177.147 80.3769 177.147C80.3603 177.798 81.2765 178.5 81.8262 178.951C83.1922 178.967 84.958 178.566 85.8242 179.134C85.3578 179.452 83.492 179.552 82.7258 179.535C83.0423 180.153 83.642 180.454 84.0418 180.972C83.1256 181.255 82.2427 180.437 81.6263 179.953C81.3764 180.521 81.6263 181.539 81.3598 182.091C80.7601 180.621 81.0766 178.449 79.544 177.798C79.3608 178.9 79.3941 180.203 79.4607 181.539C78.4112 180.671 79.1275 178.249 78.6278 176.829C78.2613 175.794 77.3617 175.493 77.0286 174.658C76.6121 176.161 76.8786 177.999 76.7454 179.285C75.8625 178.282 76.2123 175.527 76.3789 174.057C75.7292 173.155 75.0629 172.286 74.1467 171.668C74.2133 173.171 73.9634 174.157 74.0967 175.911C72.8473 174.842 73.8801 172.203 73.2471 170.95C72.7474 169.981 71.8811 170.148 70.9482 169.564C71.3481 170.599 71.6646 172.403 71.2648 173.539C70.4652 172.403 70.8816 169.931 69.8155 169.113C65.4177 169.43 61.8361 169.447 58.6377 169.764C59.1707 170.299 59.6538 171 60.4534 171.434C62.3192 172.42 65.6842 171.652 67.4833 172.737C67.1002 173.138 66.5338 172.637 65.984 172.553C64.6847 172.37 63.0022 172.62 61.6195 172.253C62.1026 173.004 62.5024 174.224 63.6019 174.658C65.4343 175.376 68.8326 173.856 69.2824 176.261C67.9831 174.892 65.5676 175.326 64.135 175.259C64.668 176.328 65.4843 177.097 66.134 178.032C67.8331 178.733 71.1648 177.648 72.5141 178.733C72.1643 179.301 71.8145 178.7 71.2648 178.667C69.8655 178.566 67.9831 179.168 66.667 178.75C66.767 179.602 67.4 179.852 67.5 180.704C69.3324 180.771 71.9478 181.022 73.5303 181.79C71.8978 181.99 70.1653 181.139 68.1663 181.423C68.183 181.94 68.8493 182.859 69.1325 183.494C71.8145 184.028 74.6298 184.429 75.7625 186.684C73.9634 185.331 72.0144 184.362 69.6656 184.229C70.032 185.348 70.865 185.949 71.2814 187.018C73.6802 187.569 76.129 188.053 77.3951 189.857C75.8958 188.989 74.2966 188.204 72.1976 187.97C72.3809 188.722 73.547 189.54 73.9301 190.509C72.3975 190.058 72.031 188.321 70.9149 187.402C70.5984 188.805 70.4485 190.459 70.9982 191.761C69.449 190.893 70.1486 188.137 70.3819 186.667C70.0154 185.799 69.5156 185.097 68.9159 184.496C68.0497 185.815 68.083 188.254 68.4495 190.509C67.5166 190.158 67.5333 188.705 67.5666 187.686C67.6166 186.233 68.0497 184.446 68.6327 183.761C68.0497 182.792 67.5166 181.757 66.8836 180.855C66.2006 182.642 65.6509 185.615 66.084 187.636C64.4181 186.083 65.9507 182.308 66.3505 180.136C65.8674 179.268 65.2178 178.583 64.7513 177.715C63.4686 179.051 63.5019 182.608 63.8018 183.995C62.1026 182.224 63.5186 178.75 64.1016 176.863C63.3354 175.777 62.4025 174.892 61.6029 173.856C60.8866 175.81 61.3363 179.034 61.4196 180.738C60.4534 179.919 60.5867 178.015 60.5867 176.278C60.6034 173.923 61.253 172.253 59.0042 171.601C58.9209 174.174 58.8043 175.226 59.0208 177.347C57.3383 174.658 59.7371 170.382 56.0556 169.747C54.2232 169.43 51.6078 170.282 49.0924 169.948C49.6755 173.088 55.4226 170.867 56.8552 173.455C55.2394 172.386 52.9905 172.47 50.7083 172.37C50.9748 173.205 51.1414 173.572 51.5412 174.073C53.257 174.725 56.1889 174.023 57.0884 175.56C55.5892 174.825 53.6901 175.226 51.7078 174.942C51.8077 178.466 56.0056 176.846 58.1879 177.882C57.938 178.349 57.405 177.848 56.9385 177.815C55.3227 178.082 54.0233 178.316 52.8405 177.882C53.357 180.187 55.4393 181.105 57.988 181.389C58.7543 181.473 59.7538 181.105 60.3702 181.773C58.3545 182.091 55.9723 181.706 54.1066 180.821C54.4398 184.73 58.038 185.047 61.6695 185.331C60.1869 185.765 57.2051 185.665 55.6725 184.863C55.9057 185.748 56.2888 186.45 56.6553 187.185C57.2051 187.285 57.4716 187.82 58.1879 187.987C59.5372 188.321 61.5529 187.602 62.086 188.922C60.4868 188.371 58.9708 189.089 57.4549 188.387C58.1546 191.945 64.2682 190.225 65.3843 192.88C63.7018 191.711 61.1031 191.811 59.2041 191.177C60.9365 193.515 63.2021 195.252 64.7347 197.791C62.6524 195.987 60.8866 193.816 58.621 192.212C58.2379 193.899 58.6543 195.286 58.9542 196.689C56.5887 195.235 59.3873 190.926 57.255 189.523C56.4721 190.626 56.0723 192.48 56.2222 194.066C54.8729 192.58 56.3388 190.125 56.722 188.671C56.2888 187.97 55.889 187.235 55.3726 186.617C54.5397 187.886 54.1066 189.523 53.9733 191.427C52.8239 190.091 54.3565 187.235 54.9562 185.765C54.4731 184.947 54.0066 184.112 53.7068 183.076C52.7906 184.229 51.9743 185.465 51.9077 187.402C50.8249 186.116 52.2242 184.145 52.8405 183.243C53.307 181.706 52.5407 180.37 52.0243 179.168C51.3413 180.654 50.2752 182.425 49.2257 183.176C50.1752 180.621 52.8572 178.199 50.4751 175.259C49.7254 176.763 49.1924 178.466 48.4594 179.969C47.943 178.082 49.6588 176.228 49.942 174.274C49.5588 173.572 49.1757 172.837 48.7259 172.203C47.8597 173.188 47.9097 175.025 47.5598 176.495C46.3771 174.073 49.3256 170.983 46.627 169.798C43.5618 169.965 40.3301 169.464 37.3982 169.48C37.4315 169.881 38.2811 170.516 38.3477 171.301C40.0635 172.253 42.479 172.437 44.528 173.004C42.8622 173.489 40.9298 172.654 39.0141 172.386C39.1973 173.138 39.5138 173.756 39.847 174.341C41.0797 175.911 44.9445 174.591 45.8107 176.562C44.6779 175.543 42.0626 176.161 40.53 175.56C41.2296 179.685 46.9101 178.316 48.6426 181.306C46.7602 179.969 44.1782 179.418 41.796 178.633C41.9793 179.518 42.3124 180.02 42.529 181.088C45.0944 181.84 47.6098 182.642 49.3923 184.262C47.5099 183.811 45.4775 182.375 43.0621 182.057C43.1453 182.792 43.945 183.894 44.1948 184.88C46.577 185.665 49.4089 185.966 50.575 188.087C48.7926 186.801 47.0268 186.25 44.6113 185.748C44.9278 186.834 45.3443 187.82 45.7441 188.822C47.943 188.972 50.6416 189.69 51.7578 191.477C50.1419 190.559 48.3594 189.807 46.0606 189.623C46.0772 190.308 46.8768 191.26 47.1767 192.062C48.9591 192.697 52.1076 192.931 53.1237 194.283C51.208 193.749 49.8587 193.432 47.843 193.031C48.3594 194.3 49.0757 195.352 49.7421 196.438C51.8577 197.724 55.4226 197.44 56.622 199.745C55.1061 198.526 52.7906 198.209 50.7916 197.524C51.1247 198.543 52.9405 199.678 53.307 200.647C52.1909 200.564 51.5079 198.86 50.4584 198.275C49.8587 199.595 49.3756 201.031 48.3927 202C48.1429 200.964 49.5588 199.428 49.8254 198.058C49.6088 197.073 48.7093 196.839 48.1262 196.271C46.9934 197.457 46.4937 199.862 44.9445 200.296C45.5275 199.344 46.2105 198.008 46.8935 196.839C47.26 196.221 47.9763 195.77 47.9263 195.035C47.8763 194.1 46.8935 193.782 46.6936 192.596C45.5775 193.565 45.2443 195.252 44.5113 196.572C43.9283 195.269 45.3942 193.315 46.1605 191.878C45.7607 190.743 45.1444 189.857 44.7612 188.705C43.3619 190.292 43.0287 192.847 41.9293 194.701C42.1792 191.912 43.112 189.74 44.478 187.97C44.0782 187.202 43.6284 186.45 43.3619 185.531C41.796 186.734 41.1963 188.805 40.2301 190.542C39.9802 188.471 41.8793 186.333 42.9454 184.68C42.6456 183.661 42.1958 182.809 41.9293 181.723C40.4633 182.725 39.2806 185.665 38.4477 187.252C38.1312 187.302 38.2644 186.734 38.2811 186.517C38.4976 184.529 40.7299 182.608 41.3796 180.754C41.2629 180.053 40.8298 179.702 40.6799 179.034C39.4139 180.337 38.6143 182.091 37.6647 183.677C37.1983 182.074 39.5471 179.836 40.2801 178.316C40.0469 177.481 39.5804 176.913 39.3139 176.111C38.0645 177.397 37.798 179.569 35.8989 180.27C36.9151 178.683 38.0312 177.197 38.7808 175.393C38.481 174.458 37.848 173.89 37.5481 172.954C36.432 174.291 35.6824 176.562 33.8666 176.879C34.8994 175.293 37.8979 173.222 36.2154 171.034C35.2159 172.637 33.8 173.84 32.4173 175.076C32.8671 172.971 35.1826 172.587 35.5658 170.432C34.8828 169.514 33.9832 170.466 32.9504 170.549C32.384 170.399 33.4668 169.864 33.65 169.647C29.3355 168.862 25.3375 169.397 20.4732 170.132C21.7226 172.136 27.2865 169.731 28.8857 171.735C28.3527 172.219 27.7197 171.535 26.8867 171.451C25.3208 171.301 23.3885 171.986 21.9225 171.685C21.9059 173.322 25.5041 172.904 25.4708 172.888C27.4198 173.088 29.3688 173.706 30.6682 174.892C28.9857 173.856 25.4374 173.856 23.0053 173.506C23.1886 174.04 23.5884 174.357 23.8216 174.842C26.7868 175.627 30.435 175.694 32.0675 177.948C30.1351 176.395 26.92 176.228 24.3713 175.694C25.0876 180.053 30.6848 179.034 33.117 181.523C30.9347 180.437 27.9862 180.187 25.9039 178.984C25.8539 179.351 26.387 180.187 26.6035 180.704C27.5697 181.89 28.8524 182.558 30.4516 183.276C31.8843 183.911 33.75 183.961 34.1665 185.598C32.2008 184.195 29.4854 183.594 27.2865 182.425C27.4365 183.444 27.9862 184.011 28.1528 185.014C31.4012 185.765 34.2331 188.104 36.1322 190.759C34.3997 189.64 32.7172 187.602 30.5682 186.4C29.9852 186.066 29.2522 186.032 28.6692 185.732C28.6359 186.25 29.2023 187.252 29.5188 187.82C31.751 189.039 33.9332 190.292 35.0993 192.68C33.3169 191.461 31.9675 189.757 29.9352 188.805C31.068 191.745 32.9671 193.866 34.3997 196.455C33.1003 195.837 32.5839 194.35 31.6344 193.331C30.8681 194.016 31.4178 196.271 31.3179 197.223C29.9852 195.92 31.4845 192.864 30.435 191.528C29.5021 192.613 29.0024 194.116 28.9024 195.97C27.6697 194.417 29.3522 191.995 30.0185 190.676C29.8186 190.108 29.4688 189.707 29.3189 189.089C27.8696 190.191 27.6197 192.396 26.6868 193.949C26.4703 191.678 27.753 189.774 28.9191 188.354C28.5692 187.602 28.2361 186.851 27.9362 186.032C26.5202 187.285 26.1038 189.456 25.0543 191.043C24.7878 188.889 27.2865 185.615 27.6697 185.682C27.4365 184.713 26.8534 184.145 26.6702 183.109C25.3542 184.112 23.8549 185.949 23.1552 187.886C22.5722 185.515 25.1543 183.995 26.1371 182.258C25.9372 181.389 25.4208 180.871 25.1709 180.053C23.555 181.439 22.3223 183.811 20.2733 184.396C21.706 182.642 23.655 181.356 24.6378 179.201C24.4879 178.316 23.7883 178.032 23.6717 177.13C22.3223 178.566 19.7736 182.157 19.6903 182.558C19.2405 181.372 20.4566 180.253 21.1562 179.368C21.9558 178.349 22.6055 177.397 23.1219 176.278C22.7055 175.527 22.2723 174.775 21.7726 174.09C20.7398 175.476 19.9735 177.765 20.0235 179.418C18.6408 177.798 20.6232 174.858 21.2395 173.489C21.0563 172.988 20.6232 172.771 20.3233 172.403C19.2572 173.973 18.0911 175.46 17.8412 177.765C16.5752 175.643 19.2405 173.739 19.557 171.819C19.4404 171.601 19.2572 171.451 19.0406 171.351C18.0744 172.136 17.6413 173.422 16.5585 174.09C16.4086 172.888 17.8579 172.203 18.1577 171.017C16.4586 170.532 14.7927 172.537 13.2601 172.988C11.7942 174.324 10.4948 179.234 8.5125 185.314C8.26262 185.03 8.01273 184.746 7.76286 184.462C7.5463 184.028 7.31308 183.594 7.09653 183.143C7.44635 183.143 7.39638 183.26 7.74621 183.109C7.99609 183.193 7.74621 183.811 8.0294 183.844C8.69574 183.026 7.57962 181.489 8.146 180.838C8.829 180.738 8.37923 181.489 8.79569 181.439C8.829 180.521 8.51249 180.003 8.56247 179.084C8.84566 178.784 9.32875 178.667 9.12885 177.932C8.89564 177.548 8.64576 177.999 8.37923 177.715C8.4292 177.046 8.97893 176.395 8.41255 175.844C9.39539 175.944 8.57913 174.407 9.72855 174.658C9.79519 175.159 9.47868 175.293 9.52866 175.794C9.76188 175.41 10.245 174.742 10.6281 175.493C10.5115 175.059 10.878 174.875 10.5948 174.625C10.4615 174.324 9.69525 174.742 9.82851 174.157C10.4449 173.84 11.0279 173.673 11.4277 173.589C11.1445 173.255 10.0118 173.84 10.0451 173.155C10.3116 172.837 11.0612 172.971 11.3944 172.721C11.0113 172.737 10.7614 172.637 10.6281 172.386C11.0945 171.869 11.9608 172.487 12.2107 171.685C11.7942 171.752 11.4943 171.685 11.561 171.217C12.0441 170.867 12.7604 171.468 12.9103 170.783C12.5938 170.683 12.0441 170.85 12.0274 170.449C13.0269 169.965 14.7261 170.299 16.2587 170.249C16.2253 169.931 16.0088 169.864 16.3586 169.747C19.5404 169.764 22.1724 167.927 26.5036 168.278C27.5864 168.261 26.7535 168.044 26.1204 168.177L24.2547 168.261C22.2557 168.328 19.4404 168.595 17.0749 169.096C15.9255 169.33 14.3096 170.232 13.46 169.146C13.8265 168.695 13.8265 167.643 14.1097 167.125C14.6261 167.075 14.293 167.593 14.5095 167.61C14.6095 167.259 14.7761 166.975 14.8427 166.591C16.1254 165.538 17.2915 163.918 18.7574 162.415C20.1734 160.962 21.2728 159.242 22.4056 158.006C22.6388 157.738 23.6217 156.853 23.8382 156.82C23.9715 156.803 24.1381 157.104 24.2214 157.054C24.8377 156.686 25.5041 155.417 26.3537 154.699C27.3199 153.88 28.4193 152.861 29.1023 152.076C30.2351 150.74 31.3512 149.521 32.6672 148.285C36.2987 144.827 39.4139 141.053 42.479 137.094C44.1449 134.956 46.0273 132.969 47.4099 130.747C49.3756 127.59 50.3251 123.298 50.4751 118.872C50.6416 113.527 50.675 109.986 50.0586 104.407C48.9758 94.5862 45.8107 87.0367 41.9459 79.8212C42.6123 81.2409 42.8622 82.9446 43.4119 84.4979C43.8783 85.8508 44.628 87.02 45.0777 88.1725C48.476 96.7576 50.2418 107.147 49.6755 117.302C49.4589 121.093 49.1424 125.102 47.943 128.125C47.5432 129.127 46.6603 130.229 45.9773 131.332C45.3109 132.434 44.6279 133.603 43.8783 134.555C38.7475 141.103 33.0337 146.598 27.2865 152.561C21.7893 158.256 16.1754 163.985 10.6281 169.313C10.4116 169.547 10.7947 169.664 10.5282 169.948C9.9951 169.497 10.2783 170.516 9.67858 170.365C9.27878 169.931 10.3616 169.297 9.74522 168.996C9.54532 169.246 9.62861 169.764 9.16217 169.764C8.67908 168.879 10.145 168.244 9.79519 167.493C9.69524 167.175 9.24546 167.96 9.16217 167.392C9.12885 166.507 10.2949 166.04 9.69525 165.371C9.49534 164.971 9.19549 165.889 9.06222 165.271C9.07888 164.536 9.64527 164.302 9.72856 163.618C9.62861 163.167 9.34541 162.899 9.17883 162.515C9.27878 161.964 9.512 161.547 9.72856 161.112C9.52866 160.578 8.91229 159.843 9.14552 159.258C9.26212 159.258 9.29544 159.158 9.39539 159.125C9.92846 159.325 9.67858 160.394 10.2116 160.578C10.3782 159.375 8.79569 158.306 9.04556 157.003C9.16217 157.003 9.19549 156.903 9.29544 156.87C9.79519 157.404 9.92846 158.356 10.3949 158.941C10.0118 157.321 9.3121 156.469 8.7124 154.899C8.89564 154.832 9.01225 154.699 9.19549 154.632C9.7119 155.417 9.9951 156.469 10.4449 157.321C10.3616 155.35 9.14552 153.529 8.44586 151.792C8.46252 151.442 8.89564 151.492 9.04556 151.258C8.92896 150.239 7.4297 148.97 8.27928 148.168C8.99559 148.936 9.22881 150.957 9.79519 151.475C9.44537 150.105 8.87898 148.986 8.49584 147.667C8.19599 147.7 7.89614 147.717 7.86282 147.45C6.9466 140.084 6.46351 133.787 5.31408 127.473C5.13084 127.457 4.86431 127.54 4.81433 127.373C4.56446 124.684 4.44784 120.876 4.08136 117.051C4.0647 116.851 3.73153 117.001 3.69822 116.817C3.74819 116.016 3.49832 115.565 3.48166 114.83C4.09802 114.245 3.78151 112.207 3.44834 111.456C3.6649 107.698 2.83197 103.722 2.66539 99.8809C2.56544 97.5092 1.73252 94.7533 2.49881 93.5173C2.33223 90.0599 2.14898 89.0577 2.14898 86.0346C2.14898 82.3266 1.94909 77.9338 2.19896 73.6747C2.29891 71.8541 2.71538 67.6284 3.14849 67.3946C3.58161 67.1607 3.19846 67.9959 3.51497 67.3779C3.8648 66.6931 3.69822 65.3068 4.13133 64.6053C3.46499 64.789 4.08136 66.1419 3.08185 66.025C3.44834 64.3714 3.34839 62.2836 4.34789 61.2146C4.58111 61.2313 4.41453 62.3504 4.63109 61.9496C4.69772 61.2146 4.83099 60.5466 5.03089 59.9286C4.73104 59.962 4.43119 59.9787 4.39787 59.7114C5.3474 53.6651 8.04607 49.2055 10.0284 44.0946C10.1783 43.9109 10.6115 43.9944 10.7614 43.8107C10.928 41.9901 12.144 40.2697 12.877 38.5995C13.7266 38.9836 13.8432 37.7476 14.3096 37.4136C14.243 36.9793 13.7599 37.1965 14.0264 36.6787C14.0764 36.2611 14.6095 36.7288 14.7761 36.6453C15.1426 36.4615 14.9926 35.8269 15.4591 35.2423C15.6923 34.9416 15.9422 35.2256 16.0754 34.9583C16.2587 34.5575 16.0921 33.9896 16.2587 33.7056C16.4752 33.6889 16.6418 33.7223 16.7584 33.8059C16.7917 33.2046 16.8417 32.6033 17.3081 32.4028C17.5414 32.6367 17.3081 33.1043 17.2249 33.405C18.5409 31.7514 21.5894 31.0332 21.3561 28.3441C21.1562 29.0791 21.0729 29.9142 20.4566 30.2649C20.24 29.5467 21.0063 29.1125 20.6232 28.6281C20.34 29.3296 20.2234 30.7994 19.607 30.7994C19.657 30.1647 19.8735 29.697 20.0235 29.1625C19.1572 29.5968 19.5737 31.8517 18.6575 31.8517C18.6408 31.2671 19.2072 30.599 18.8241 30.0979C18.0911 30.4988 18.7075 31.7347 17.9245 32.2692C17.6746 32.1523 18.1411 31.3673 17.7413 31.1501C11.0612 38.4491 7.24647 48.3704 3.56496 58.4086L3.59827 59.1602C0.766333 67.762 0.499792 78.2178 0.516454 86.7695C0.533109 92.4316 1.33272 98.4445 1.33272 104.457C1.33272 109.101 1.69921 113.961 2.23228 118.521C2.84864 123.849 3.88146 129.411 4.58111 134.388C5.3474 139.7 5.81384 144.894 6.31359 150.172C6.81334 155.534 8.26262 161.346 7.8295 166.708C7.71289 168.111 7.47968 169.48 7.39639 170.85C7.16316 174.541 6.5468 177.564 5.76385 180.604C5.63059 180.32 5.48066 180.036 5.34739 179.752C5.33074 179.736 5.31407 179.702 5.29742 179.685C6.16365 176.245 6.69673 172.771 6.79668 168.612C6.87997 165.188 6.78002 161.446 6.5468 158.006C6.31359 154.532 5.43069 150.723 5.03089 146.965C4.71438 143.942 4.69772 140.936 4.24794 138.263C3.64823 134.689 3.3817 131.064 2.74868 127.473C1.98239 123.097 1.24943 118.187 1.23277 113.677C1.21611 108.466 0.383191 104.34 0.0833403 99.7473C-0.199855 95.3211 -0.0332745 89.9596 -0.0832469 85.5168C-0.166537 78.5184 0.333219 72.4053 1.36604 65.8412C2.08235 61.3316 3.49832 57.0891 4.86431 52.8133C6.16366 48.7379 7.9128 44.746 9.7952 41.1048C13.1602 34.6243 17.1749 29.4465 23.022 25.5047C21.1562 25.1206 21.2895 22.515 19.9735 21.5295C19.8569 20.9449 20.1068 20.6944 20.29 20.3937C18.8407 20.5942 18.7408 19.0576 18.4076 17.4875C18.2244 16.5689 17.6746 15.9175 17.6746 15.2661C17.7246 12.2262 24.3047 11.341 27.8029 10.8065C24.9544 10.0716 22.922 10.6562 19.5737 10.4391C18.0578 8.76881 19.8236 6.33024 20.8231 5.14438C23.3052 5.32809 25.3208 5.22789 27.4531 5.82917C26.7202 4.96064 23.6217 4.89383 24.1881 2.60557C24.8378 2.0878 25.4874 1.75377 25.7373 1.15248C28.386 -0.267245 30.4017 1.77046 32.4007 2.58888C32.3174 1.97088 31.6011 1.51993 31.8343 0.98544C33.1836 -0.567889 36.1821 0.150327 37.215 1.48652C38.7975 -0.300646 42.9288 0.46768 42.9121 3.47412C45.3776 2.22143 49.7254 0.985441 51.991 3.17348C54.4398 5.56193 52.041 11.2575 50.9248 12.4601C51.5745 12.5269 52.2075 12.6104 52.6906 12.8776C53.2404 14.0802 54.4564 17.6879 52.5574 18.1222C54.4564 19.3081 54.0066 20.995 52.9072 22.849C52.5407 23.467 51.8244 25.0036 51.2747 25.0537C49.9087 25.1707 49.2257 21.4293 48.576 20.6777C49.3923 23.8345 50.4917 28.4443 48.8092 31.1501C47.7764 32.8204 45.4442 32.6868 43.1787 33.2881C42.8455 32.8705 42.4124 32.5532 42.479 31.7013C41.5461 32.7536 41.2296 35.6598 38.7808 35.3759C38.1645 35.2924 37.8147 34.6911 36.8651 34.3403C35.5658 33.856 33.9333 34.2735 33.6834 32.9874C33.5001 32.0187 34.9328 30.2649 35.5158 29.4131C37.6314 26.3064 40.0635 22.3479 41.1297 18.9072C39.7137 21.1955 37.4315 24.6195 35.0494 27.4255C33.8833 28.8118 32.5173 30.3317 31.2346 31.217C30.5016 31.718 29.6021 32.1523 28.7858 32.0855C27.753 32.002 27.2366 30.9163 26.3204 29.9476C25.7373 29.3296 25.1543 29.2795 25.0043 28.2606C14.0598 34.4071 9.41205 46.2993 5.76385 59.1268C3.33172 68.2464 2.79866 76.6812 2.79866 86.6024C2.81532 94.9203 3.88146 103.89 4.49782 112.374C4.71437 115.347 4.7477 118.12 5.1475 120.959C5.66391 124.651 6.68006 128.175 7.26311 131.716C9.27878 143.792 11.6776 156.051 11.2945 167.61C12.7271 166.958 13.5267 164.703 15.2258 163.935C16.7418 162.064 18.4742 160.377 20.34 158.824C24.5546 153.646 43.3452 135.524 43.5285 132.768C43.6784 130.53 41.0131 127.691 41.796 125.102C43.6951 126.288 44.2448 128.876 44.578 131.465C48.0096 126.789 48.7926 119.089 48.8758 111.406C48.8925 109.685 48.8425 108.015 48.6426 106.428C47.21 95.2042 43.2453 84.1305 38.2978 76.5809C37.9313 77.0653 38.3977 78.8358 37.8147 79.721C35.699 80.9904 33.7667 81.5583 32.5673 79.2199C31.701 77.5497 31.4012 74.5934 31.0347 73.0567C30.5516 75.9964 31.1013 79.3703 29.6853 81.6084C28.3194 81.9592 27.2532 81.7587 25.9539 81.6585C24.1881 77.2992 24.8044 72.1548 25.5374 67.3278C24.1214 71.4533 24.4713 77.0653 23.2052 81.4247C20.6898 81.8589 18.8074 80.506 19.1572 77.366C17.3748 77.2323 16.7751 75.7959 15.559 75.0443C16.1087 71.1192 17.9245 67.4781 20.1901 64.8391C21.3395 63.5029 22.239 62.317 24.1548 61.7825C23.2552 58.3251 20.6731 48.5542 23.5551 46.3327C24.8544 45.3306 27.2532 46.2993 28.336 47.2347C30.5183 49.1555 34.2164 53.1306 35.3326 55.7696C35.5491 56.254 35.6491 56.4879 35.5158 57.0056C39.0807 55.92 45.7108 57.0891 48.4261 58.893C48.9925 59.2772 50.0753 60.2125 50.1252 60.6802C50.2252 61.699 48.9258 62.0832 48.7426 63.1187C48.3928 63.3025 47.8763 63.3192 47.4932 63.1688C48.676 64.1209 50.2918 65.2232 50.2918 67.0271C49.7254 67.7787 49.2757 68.3466 48.6593 69.3488C47.4765 71.2695 45.4775 68.5637 44.2282 67.8121C44.7945 68.8477 46.0606 70.2507 46.6436 71.6871C46.5437 73.1569 45.6774 73.9086 44.0116 73.9253C41.746 76.3471 40.3134 74.2092 39.2473 72.0546C44.0782 82.1095 49.2423 92.6989 50.4917 106.328C50.6583 108.065 50.9748 109.017 50.8082 110.554C51.7911 110.704 52.3408 112.207 53.5235 112.558C53.5402 111.439 53.357 110.838 53.5235 109.936C52.7239 109.218 51.1081 108.115 51.5079 106.913C52.1909 107.514 52.4907 108.533 53.3403 108.95C54.2898 107.063 53.9067 106.161 52.8905 104.608C52.5074 104.006 51.8744 103.505 51.6911 102.921C52.9738 103.088 53.2237 104.374 53.9067 105.192C54.4398 103.723 54.6397 101.969 55.9723 101.234C55.6059 102.286 55.2727 103.388 55.0061 104.524C56.7553 104.641 58.3878 103.255 59.8871 102.42C60.0536 102.921 59.2707 103.505 58.8376 103.839C57.8547 104.608 56.622 105.126 54.9229 105.393C54.723 105.927 54.6896 106.612 54.6397 107.28C56.3055 107.614 58.3045 106.094 59.4206 105.56C58.5544 107.08 56.8386 107.815 54.6896 108.149C54.4564 108.566 54.673 109.418 54.6563 110.019C56.3055 109.769 57.8714 109.201 58.9708 109.067C57.8714 109.969 56.1056 110.27 54.6896 110.888C54.7896 111.623 54.9728 112.241 55.0395 112.992C56.6387 112.341 57.6548 111.823 59.5706 111.406C58.4544 112.491 56.4554 112.775 55.3227 113.844C55.5226 114.312 55.4726 115.08 55.6558 115.581C56.9385 115.164 58.2046 114.111 59.3207 113.911C58.571 115.097 56.9885 115.514 55.9557 116.433C55.989 117.218 56.4221 117.586 56.3055 118.538C57.7714 117.719 59.1541 116.851 60.9365 116.316C59.8371 117.652 57.8214 118.17 56.4721 119.273C56.4221 120.291 56.722 120.909 56.8386 121.744C58.9042 120.341 62.5524 117.87 64.2682 115.648C64.5847 115.231 65.2178 114.045 64.7846 113.377C64.2516 112.658 62.719 113.042 62.2359 112.241C63.302 112.124 64.2016 112.174 64.8679 112.491C64.6514 110.253 61.7861 110.905 60.7533 109.568C61.5362 109.318 63.3187 110.12 64.4015 110.404C64.4848 109.652 64.1683 109.117 63.9517 108.8C63.3354 107.648 61.0198 108.366 60.6367 106.963C61.5362 107.197 62.5857 107.263 63.5186 107.447C63.7018 107.23 63.2687 106.595 63.2187 106.211C63.1688 105.944 63.0022 105.844 62.8189 105.56C62.9356 104.741 61.986 105.643 61.7861 104.908C62.1359 104.725 62.1026 104.875 62.6524 104.875C62.0527 103.572 61.8028 101.885 60.8533 100.967C59.3207 100.766 58.0047 100.349 57.5216 98.9957C58.7043 99.3464 59.404 100.248 60.9365 100.215C60.4868 98.3109 58.5877 97.9935 58.0047 96.2398C59.3373 96.2565 59.2874 97.8098 60.3368 98.1272C60.6034 97.576 60.4868 96.6741 61.1364 96.4736C61.1198 97.292 60.9532 97.4758 60.9699 98.1105C62.2692 97.91 61.6529 94.937 63.0355 94.3858C62.6524 96.1563 62.4191 98.0437 61.3863 99.2128C61.6862 100.315 61.936 101.501 62.4025 102.403C63.9351 101.585 62.7357 98.2608 64.4182 97.5593C63.6519 99.3297 64.3015 102.069 62.6857 103.255C62.9522 103.839 63.1854 104.457 63.402 105.092C64.9346 104.424 64.6181 102.069 65.9674 101.234C65.4177 103.155 65.0845 104.624 63.8185 105.961C63.9184 106.812 64.3349 107.314 64.4182 108.182C65.8341 107.564 66.5338 106.295 67.1335 104.942C67.5833 106.545 65.8841 108.249 64.718 109.168C64.9012 109.802 65.1511 110.353 65.301 111.005C66.3339 110.404 67.3667 108.75 68.7827 108.099C68.1163 110.086 65.1345 110.938 65.9174 113.477C67.5 111.773 69.1825 110.17 70.3985 108.149C70.8816 105.961 69.2824 105.727 68.4828 104.624C69.1325 104.29 69.6656 105.126 70.2653 105.293C70.3652 102.988 67.6499 103.806 66.9003 102.453C67.7332 102.386 69.1325 102.654 69.7988 103.188C69.6489 102.386 69.349 101.752 69.0825 101.1C68.2329 100.499 66.6504 100.733 66.4005 99.4801C67.2334 99.5302 68.0497 100.115 68.5494 100.131C68.5494 97.91 65.1178 97.6261 64.9679 95.555C66.0007 95.9558 66.4338 97.0081 67.4167 97.4424C66.9169 96.4068 67.0169 95.7554 66.9169 94.7199C67.7332 95.3713 68.2163 96.9747 68.816 98.2441C69.3157 97.2753 69.499 96.0059 69.7822 94.8201C70.0154 94.8034 70.2986 96.0561 69.1825 98.6951C68.866 99.4467 69.7822 100.666 70.082 101.301C71.0315 100.232 71.7645 98.5614 71.7479 96.9747C72.4142 97.409 72.2476 98.5781 72.0977 99.2128C71.8478 100.248 70.765 101.484 70.3652 102.169C70.715 102.787 70.6817 103.823 70.8483 104.641C71.1981 104.624 71.6812 104.307 71.9311 103.973C72.4142 103.305 72.181 102.036 72.9473 101.685C73.7635 102.937 72.1477 104.892 71.1315 105.643C71.2481 106.345 71.498 106.896 71.4813 107.748C72.5808 106.412 74.9796 104.123 74.5465 101.367C74.3299 99.9477 73.3637 99.1293 73.0139 97.6929C74.4798 98.0437 74.4132 100.081 75.1628 101.217C77.7282 98.7786 73.3138 96.8411 73.4803 94.3023C74.0467 94.3858 74.1633 95.388 74.5631 96.006C74.9796 96.6407 75.4793 97.2252 76.0124 97.5593C76.1124 97.9769 76.4289 98.1439 76.5621 98.528C76.9786 97.743 77.6449 97.3589 77.2118 96.2565C76.6621 94.8702 74.5964 93.0329 75.7625 91.9472C76.3456 92.9494 76.6954 95.0372 77.8115 95.8389C78.4112 95.0706 77.9448 93.3335 79.0442 93.0329C79.3108 93.25 79.0276 94.8034 78.7944 95.6719C79.7106 96.0728 80.227 95.0873 81.0099 94.937C81.1432 95.9391 79.7106 96.4235 78.4779 96.5571C78.0781 97.1417 77.9781 98.0102 77.7116 98.7118C79.6606 98.5948 80.8933 97.8098 81.9928 96.8912C81.9595 98.4111 79.6273 99.0625 77.6283 99.3799C77.0452 99.9644 76.8953 100.933 76.4955 101.685C78.7277 101.551 80.5935 101.05 82.1594 100.298C81.0932 102.336 77.9115 101.701 75.9291 102.837C75.4294 103.505 75.0462 104.257 74.6631 105.025C75.7959 104.474 77.2618 104.207 78.861 104.073C77.2618 105.192 74.3632 105.944 74.1633 105.961C73.6636 106.896 71.8978 108.85 71.2814 109.685C75.5127 109.735 76.1957 105.51 80.6768 105.376C79.8438 105.961 78.8277 106.094 77.9948 106.629C77.1785 107.147 75.2128 109.218 74.6298 109.401C74.9629 109.735 75.7459 109.568 76.1457 109.836C76.4289 109.268 80.0104 107.147 81.2432 106.846C81.593 106.762 82.8424 106.529 83.1256 107.13C80.7934 107.213 79.3274 109.051 77.5283 110.019C80.7767 111.907 82.5092 107.597 85.541 108.266C83.9252 108.633 82.5092 109.969 80.9266 110.721C82.8424 112.625 84.7248 108.867 86.4906 109.969C86.4406 110.437 86.224 110.036 85.7576 110.136C84.9746 110.454 84.6415 111.189 83.8252 111.472C84.4749 111.873 88.7228 113.059 89.5557 114.078C88.373 114.329 87.4068 113.326 86.274 113.109C86.6405 114.896 87.7899 115.815 88.6895 116.984C86.8737 116.45 86.174 114.679 85.5077 112.892C84.5582 112.408 83.3421 112.291 82.4759 112.04C82.909 113.644 83.4754 116.266 84.3583 117.819C82.3759 117.034 82.7757 113.627 81.593 111.957C80.8767 111.472 79.8438 111.356 78.9443 111.088C79.3441 112.809 80.3769 114.462 80.91 115.865C79.1609 115.08 79.0442 112.508 78.0614 110.871C77.3951 110.771 76.7454 110.654 75.9458 110.721C76.2123 112.174 77.5283 113.594 78.0281 115.247C76.4455 114.329 76.0291 112.124 74.9463 110.654C73.7968 110.537 73.0805 111.055 71.7312 111.055C73.6636 111.94 75.1628 113.31 76.3956 114.963C74.0301 114.078 73.2138 111.489 70.0154 111.523C68.0997 113.477 66.2006 115.431 64.5681 117.652C68.5994 119.156 69.5656 114.646 73.0306 114.88C71.0149 115.665 69.5823 116.984 68.083 118.237C70.815 120.225 73.0306 117.151 76.2456 117.101C75.6959 117.936 74.5298 117.836 73.6802 118.22C72.8473 118.588 72.2309 119.323 71.3647 119.456C72.714 120.024 73.6636 120.776 75.3794 120.141C76.4622 119.74 77.6449 118.771 78.7944 118.488C79.3108 118.354 80.3436 117.986 80.7934 118.638C78.3612 118.838 77.0452 120.058 75.2961 120.893C77.4784 122.93 80.2103 120.492 82.9923 120.291C81.8429 121.16 80.227 121.577 78.8443 122.229C80.3936 123.231 82.6758 123.415 84.2916 124.35C83.1589 124.15 81.9595 124.033 80.91 123.766C81.1265 124.35 82.1261 125.219 82.276 126.321C81.3598 125.803 80.2603 123.649 80.5268 123.649C79.9605 123.348 79.2441 123.231 78.6278 122.98C79.4274 124.25 79.7272 126.121 80.5768 127.507C79.2775 127.49 79.2441 125.569 78.6944 124.35C78.3446 123.582 77.6949 123.231 77.6116 122.53C76.9453 122.312 76.1957 122.162 75.596 121.878C75.8958 123.381 77.0452 125.653 77.3284 127.173C75.7625 126.104 75.6959 123.381 74.7131 121.678C74.08 121.294 73.2804 121.076 72.5475 120.776C72.4309 122.797 74.2466 124.484 74.6464 125.92C73.0139 124.968 72.0144 122.613 71.7812 120.559C71.0482 120.191 70.1653 119.974 69.2491 119.807C69.8155 121.895 70.5318 123.548 71.4813 124.951C69.7155 124.45 69.2491 121.394 68.3662 119.473C67.5999 119.456 67.1668 119.055 66.3505 119.072C66.9336 120.392 67.7332 122.496 67.9497 123.999C66.6337 122.864 66.667 120.275 65.351 119.122C64.7013 118.972 63.8018 119.072 62.9855 119.106C60.7366 121.11 58.2046 122.847 56.039 124.918C59.5206 125.803 60.2036 122.797 63.2687 122.58C61.7361 123.398 60.6367 124.634 59.0375 125.402C61.6195 126.572 63.7518 123.198 66.9336 123.782C64.818 124.283 63.1355 125.336 61.3197 126.171C61.7028 126.889 62.619 127.006 63.2521 127.457C64.085 126.104 66.4172 125.503 68.5328 125.72C67.0169 126.321 65.2511 126.688 63.8851 127.44C65.5509 129.862 68.9326 126.939 71.4813 127.59C70.3319 128.409 68.083 128.225 67.0668 129.177C68.5994 130.513 72.0144 128.943 73.8968 128.86C72.6641 129.862 71.1482 129.895 69.4823 130.447C70.5651 131.399 72.3642 132.25 73.2138 133.019C72.4142 133.286 71.0149 131.966 69.9154 131.682C69.6489 132.401 70.3985 134.205 69.7155 135.307C69.0992 133.82 69.5656 131.85 68.6327 130.864C67.8498 130.497 67.1835 130.012 66.3339 129.728C66.6837 131.048 67.5833 133.019 67.1668 134.305C66.3672 133.854 66.6337 132.651 66.4338 131.85C66.1673 130.797 65.5176 130.012 65.3177 129.16C64.6847 128.86 64.035 128.559 63.402 128.258C63.2854 129.862 64.4182 131.115 64.4681 132.451C63.3687 132.167 62.9356 129.361 62.6524 128.158C62.2526 127.724 61.5196 127.657 60.8699 127.49C60.8366 128.125 61.3363 130.229 61.0531 131.482C59.8204 130.396 61.1531 126.488 58.6044 126.855C58.4378 127.975 59.1707 129.895 59.2874 130.697C57.9047 130.296 58.3378 127.908 57.7215 126.655C55.8724 125.937 53.3903 126.304 52.2908 127.54C52.3075 128.225 52.674 128.492 52.7573 129.394C53.8067 130.279 56.1556 129.762 56.9385 130.948C56.1056 131.348 54.6063 130.313 53.1904 130.497C53.0405 131.248 53.8067 132.067 53.8067 133.085C55.0728 133.787 57.0718 132.868 58.1879 133.637C57.1884 134.205 55.8224 133.837 54.3398 134.071C54.4731 134.839 55.0061 135.173 55.1727 135.908C56.622 136.142 58.5544 135.858 59.5706 136.576C58.9542 137.261 56.9552 136.175 55.7225 136.76C56.039 139.032 58.9042 138.497 60.3368 139.549C59.5206 140.151 58.721 139.282 57.7215 139.416C58.088 140.284 59.6538 140.952 60.087 142.172C59.1541 141.971 58.9375 141.002 58.1546 140.635C57.355 141.671 58.1379 143.207 57.8214 144.276C56.7886 143.708 57.1551 141.303 57.5049 140.301C57.1051 139.599 56.5054 139.132 55.939 138.631C55.4393 139.332 56.3721 141.22 55.7225 142.005C54.7896 141.019 55.4892 138.998 55.2727 137.662C55.0728 136.426 54.0899 135.708 53.7734 134.739C52.9405 136.125 53.9733 138.614 53.5069 139.616C52.7406 138.464 52.3908 134.756 53.4902 133.871C53.1904 133.136 52.9238 132.401 52.7573 131.532C51.9077 132.668 51.7744 134.455 50.9581 135.608C50.7083 133.119 53.1071 130.73 51.1414 128.86C48.5927 129.929 47.1767 132.952 45.3443 135.374C41.3796 140.585 36.8818 145.145 32.2008 149.838C25.9872 156.068 20.24 162.432 14.4096 168.779C17.5747 168.578 21.8725 168.344 23.3885 166.24C23.705 164.419 21.3228 164.971 21.7726 163.451C22.5222 164.119 23.4718 164.536 24.1048 165.338C24.3547 164.286 25.8039 163.417 25.9539 162.248C26.0871 161.112 25.1043 160.461 25.071 159.425C25.9872 159.058 25.9539 160.795 26.4036 161.363C27.02 160.394 27.8196 159.024 28.2527 158.273C28.3194 157.471 27.2699 157.321 27.6697 156.553C28.386 156.519 28.436 157.187 28.7192 157.621C29.8353 156.903 30.5349 155.534 29.9352 154.197C30.8181 154.047 30.8514 155.417 30.6349 156.035C31.8343 155.383 32.7005 153.396 34.2164 152.627C33.2836 154.197 31.7177 155.2 31.0513 157.02C31.5677 157.371 32.9004 156.82 33.4168 157.154C32.9671 157.805 31.2346 157.839 30.335 157.672C29.9186 158.123 29.5521 158.624 29.2855 159.225C30.3017 159.191 31.5178 159.509 32.7672 159.191C32.3674 160.478 30.435 159.676 28.9357 159.993C28.1861 160.628 27.6697 161.463 27.1699 162.315C28.1861 161.964 29.8686 162.014 31.1346 161.998C30.4183 163.267 27.8363 162.298 26.7201 163.334C26.437 163.835 26.1371 164.302 25.7873 164.753C26.7368 164.887 28.9524 164.52 30.0352 165.171C29.0357 166.04 26.7035 164.804 25.3375 165.772C24.8544 166.357 24.4213 167.008 23.9215 167.593C28.4193 167.058 32.9171 168.161 36.2488 167.643C36.532 167.125 37.3649 166.29 37.3982 165.472C37.4482 163.634 34.7995 162.515 34.9494 160.845C35.9822 161.931 36.9318 163.117 37.848 164.336C38.1978 163.735 38.4977 163.183 38.5143 162.549C38.5476 160.695 36.2654 158.841 37.4149 157.488C37.4815 159.041 38.5143 159.526 38.8142 160.795C39.6637 159.893 39.1307 158.674 39.797 158.006C39.3805 156.152 38.2978 155.033 37.4815 153.613C38.9141 154.047 39.4139 155.5 40.1135 156.736C40.5466 155.951 40.7299 154.916 41.113 154.064C40.8965 152.861 39.4805 150.64 40.53 149.721C40.6133 150.606 41.1297 151.893 41.4295 152.928C42.6623 151.609 43.1787 149.203 42.529 147.132C43.1787 147.416 43.2453 148.352 43.4952 149.086C44.7279 147.867 45.5442 145.963 46.7769 144.694C47.2267 144.226 47.9929 143.591 48.7259 143.608C47.9763 144.994 46.6603 145.863 45.9106 147.233C47.26 147.249 48.7592 146.447 50.3751 146.782C48.7426 147.667 46.7602 147.55 45.4942 148.752C44.8112 149.404 44.4614 150.155 43.9783 151.074C45.261 150.723 46.6936 149.888 47.9097 149.888C47.6431 150.389 46.8768 150.723 46.3438 150.957C45.4109 151.358 44.3281 151.575 43.5285 152.093C43.0121 152.661 42.6956 153.396 42.3791 154.147C43.7117 153.964 45.4109 153.012 46.4437 153.329C45.2443 154.465 42.8622 154.097 41.796 155.3C41.2296 155.935 41.4462 156.703 40.8965 157.471C42.2458 157.104 43.6951 156.218 45.211 156.402C44.0949 157.438 41.9293 157.538 40.5633 158.373C40.3634 159.058 40.0635 159.676 40.0469 160.528C41.2963 160.394 43.2953 159.292 44.7279 159.308C43.0954 160.912 39.064 160.327 39.4638 163.801C41.0131 163.501 42.9788 162.632 45.0277 162.799C42.9288 164.186 38.6309 163.568 38.481 166.724C40.5633 166.424 42.5623 165.438 44.3947 165.321C43.0954 167.075 39.164 166.424 37.798 168.127C39.4305 168.595 41.3629 168.445 43.2953 168.612C45.211 168.779 46.6936 169.464 47.5099 168.044C47.3266 166.073 45.5275 164.035 46.4937 162.098C46.627 163.751 47.4432 165.639 47.9763 167.276C48.526 166.992 48.6759 166.323 49.0258 165.856C48.6926 165.188 48.8259 164.386 48.6593 163.501C48.3261 161.663 46.9601 159.509 48.0596 158.54C48.0762 160.711 49.5588 162.682 49.4589 164.72C50.1086 163.584 50.9082 162.916 51.0581 161.647C51.308 159.609 49.7254 156.92 51.0081 155.283C50.7749 156.82 51.5245 158.991 51.6245 160.377C52.3575 160.01 52.674 158.223 53.357 157.421C53.5235 156.486 53.6901 155.484 53.4569 154.164C53.2237 152.861 52.0909 151.558 52.674 150.707C53.5235 152.043 53.9567 153.83 54.2732 155.751C55.0561 154.882 55.4726 153.663 56.3888 152.911C56.4221 152.627 55.1228 149.036 55.9057 147.934C56.4554 149.02 57.1051 150.673 56.8386 151.893C57.6882 151.074 58.4045 150.139 59.2041 149.287C59.2874 148.134 59.0208 146.648 59.4206 145.779C59.8871 146.347 59.8038 147.533 59.9204 148.502C60.8033 148.185 61.7528 146.915 62.5524 146.13C62.6357 144.426 61.6862 142.623 62.9689 141.737C62.769 143.291 62.9022 144.46 63.1521 145.729C63.9517 145.345 64.3515 144.594 65.3344 144.376C65.0678 145.195 64.1683 145.462 63.8018 146.197C65.3344 146.531 67.0835 146.364 68.5494 146.481C67.2001 147.734 64.7513 146.598 63.1021 146.982C62.1193 147.216 61.7361 147.934 61.0531 148.569C62.8023 148.352 64.0517 148.686 65.4177 148.869C64.9012 149.805 63.8351 149.153 63.1854 149.103C62.2192 149.02 61.3697 149.454 60.2202 149.487C59.5872 150.172 59.0875 151.007 58.3212 151.575C59.4373 151.792 61.8528 151.208 62.9522 152.11C61.5196 152.845 59.5039 151.792 57.988 152.46C57.0218 152.895 57.0052 153.93 56.3388 154.665C57.9214 154.231 59.2707 154.131 60.8033 154.331C59.8704 155.283 56.9385 154.866 55.3893 155.584C55.5559 156.001 55.0228 156.619 54.723 157.237C56.0723 157.454 57.5216 156.72 58.8209 157.054C57.9047 158.123 55.1561 157.521 54.0233 158.406C53.6568 159.125 53.4736 159.943 52.8905 160.711C53.9567 160.661 56.1389 159.96 57.4882 160.494C56.9718 161.263 55.7225 160.845 54.7729 160.995C53.89 161.146 53.207 161.613 52.574 161.73C52.2075 162.549 51.7578 163.3 51.4412 164.152C52.4907 164.119 54.7063 163.467 55.889 163.568C54.7729 164.687 52.8572 164.419 51.1081 165.037C50.6083 165.655 50.3418 166.49 49.9586 167.209C51.3913 167.008 52.6406 166.641 54.1899 167.259C52.8072 168.094 49.2756 167.175 48.6759 169.013C51.1414 169.18 55.1894 169.597 57.1051 168.361C57.8048 166.724 56.9718 163.701 58.0713 162.448C58.0213 164.085 57.9713 165.371 58.1712 167.443C58.8709 166.557 60.0703 166.223 60.4201 165.087C61.0198 163.183 59.1874 160.377 60.62 158.707C60.6367 160.394 60.8699 162.716 61.1364 164.553C61.8694 164.219 63.402 161.73 63.8684 161.68C63.9517 159.609 62.7023 156.703 63.8184 155.183C63.6519 157.221 64.1516 159.125 64.5847 160.895C65.1844 159.726 66.4671 159.359 66.817 158.039C67.3167 156.152 65.0678 153.446 66.9003 151.792C66.5338 153.279 66.8336 155.25 67.5 156.636C68.8493 155.767 69.0658 153.847 69.7988 152.41C69.5989 150.239 69.6989 148.352 70.4152 147.015C70.8983 147.851 69.6156 150.039 70.4818 151.258C71.6146 149.788 71.8811 147.533 73.3637 146.381C72.8473 148.018 71.9977 149.354 71.5979 151.091C72.5475 150.924 73.497 149.721 74.763 149.437C73.8968 151.224 71.4147 151.725 70.3319 153.396C69.6989 154.381 69.6656 155.484 68.8493 156.469C70.5485 156.603 71.7479 155.216 73.1305 154.648C72.5141 155.868 71.1482 156.92 69.6322 157.187C69.2991 157.254 68.8326 157.104 68.5161 157.237C67.1668 157.788 66.2506 160.595 65.1011 161.513C67.9664 161.346 69.9654 160.394 71.5813 159.091C70.7484 161.012 68.3329 161.931 65.8674 162.231C65.5009 162.281 65.0012 162.148 64.6181 162.281C63.0855 162.849 62.9022 164.987 61.6695 165.789C63.985 165.822 65.7675 164.77 66.817 164.052C66.4838 166.34 62.8689 166.223 60.9699 166.691C59.9204 167.326 59.1541 168.211 58.3378 169.063C62.4858 168.879 68.183 169.397 70.4485 167.125C70.2653 166.09 69.5489 165.004 69.7988 163.902C70.3652 164.536 70.5651 165.589 71.1482 166.207C73.3137 165.138 71.0315 162.365 71.0149 160.711C71.8145 161.53 72.3476 162.649 72.7807 163.868C73.0805 162.816 74.2133 162.181 74.2633 161.045C74.3133 159.993 73.1638 159.141 73.497 158.089C74.1133 158.507 74.3965 159.292 74.7131 160.027C75.446 159.191 75.8958 158.089 76.5788 157.187C75.5959 154.582 75.3627 152.16 75.496 149.988C76.2789 151.959 76.0457 154.415 77.1452 156.152C78.1447 155.183 78.8443 153.964 80.127 153.262C80.0104 154.281 79.1275 154.582 78.7277 155.333C80.4102 154.999 81.7262 154.331 83.1422 153.746C82.0261 155.149 79.8272 155.567 78.0281 156.352C77.495 157.087 77.0452 157.922 76.6454 158.791C78.6111 158.557 80.1937 157.338 81.7929 157.17C79.9438 159.058 75.6459 158.724 75.1628 161.847C77.3451 162.048 79.1442 160.862 80.81 160.21C79.7272 161.764 76.7787 162.616 74.813 162.616C74.3133 163.384 73.8801 164.219 73.4304 165.054C74.7797 165.037 76.8953 164.102 77.8448 163.718C77.2285 165.288 75.1129 165.037 73.7135 165.789C72.7474 166.307 72.181 167.192 71.5646 167.894C72.5308 167.693 73.7469 167.743 74.6631 167.493C74.9463 167.409 76.5788 165.538 77.6949 165.605C77.545 166.257 77.0619 166.624 76.6454 167.025C77.2451 166.941 77.7116 166.841 78.3612 166.574C79.8272 164.52 80.96 162.181 83.2088 160.862C81.9095 162.582 80.4269 164.119 79.594 166.273C83.3754 166.073 82.5592 161.663 85.5577 160.745C84.6914 161.981 83.4587 163.083 83.0256 164.92C83.8918 165.121 84.7914 164.302 85.7243 164.169C86.7904 161.998 87.7899 159.776 89.8222 158.49C88.6395 160.16 87.4901 161.847 86.7071 163.885C89.006 163.835 89.6057 161.597 90.9384 161.062C90.6718 161.897 90.0055 162.365 89.6723 163.117C90.5219 163.451 92.4709 162.432 92.8041 163.601C91.4881 163.835 89.4891 164.152 88.4562 163.935C90.1388 165.054 91.7879 166.207 93.1206 167.71C90.272 166.858 88.2397 162.916 84.6581 165.221ZM37.9479 60.1624C38.8975 60.7804 40.3467 61.3984 41.3796 61.4986C41.5295 62.2669 40.9131 62.8515 40.43 62.6678C40.4634 62.317 40.9798 62.1166 40.6466 61.7825C40.2468 61.866 40.0635 61.7324 39.7637 61.699C39.5971 62.1166 39.5305 62.601 38.9308 62.6177C38.8641 62.0999 39.3639 61.6656 38.9974 61.2481C38.5476 61.5487 38.1645 61.9162 38.0645 62.5341C41.5295 64.3881 44.2448 67.0939 47.5765 69.0815C48.8092 68.6974 48.6759 67.0605 49.9586 66.7265C47.943 62.0665 42.5456 61.7658 37.9479 60.1624ZM37.2816 61.8159C37.5315 61.7992 37.4482 62.15 37.798 62.0498C37.8646 61.6322 38.1478 61.4151 38.2478 61.0309C37.5981 60.6802 37.3482 61.2815 37.2816 61.8159ZM37.1816 59.9453C36.9484 60.0789 36.7485 59.5945 36.6819 59.962C36.7652 59.9954 37.1816 60.2459 37.1816 59.9453ZM37.5315 59.177C38.0146 59.3273 38.1645 58.5757 37.8646 58.4086C37.6981 58.6258 37.4315 58.7427 37.5315 59.177ZM38.2811 59.3941C38.4977 59.3774 38.6642 59.4108 38.7808 59.4943C38.8808 59.2104 39.0141 58.6592 38.8641 58.4921L38.4977 58.5088C38.5976 58.9598 38.2478 58.9932 38.2811 59.3941ZM39.5471 59.7114C39.6637 59.511 40.0302 58.5088 39.4972 58.4587C39.6804 58.9431 38.9641 59.6446 39.5471 59.7114ZM37.1983 57.5735C37.4482 57.5902 37.4648 57.9076 37.7147 57.9243C37.9146 57.8408 37.898 57.5401 38.0645 57.4065C38.481 57.3898 38.381 57.9243 38.8308 57.8741C39.064 57.8073 38.9141 57.3898 39.3139 57.4733C39.4305 58.0245 39.7137 58.0078 40.0635 57.6904C40.0969 57.8742 40.2801 57.8909 40.3301 58.0579C40.48 58.6759 39.7637 59.6279 40.4134 59.9286C40.7799 59.6279 40.4467 58.6759 40.7132 58.2917C41.4962 58.4754 40.9464 59.6112 40.9298 60.1624C43.6451 60.7637 45.6441 62.1333 48.626 62.4172C48.6093 61.4819 49.4922 61.3817 49.6588 60.6134C48.7759 59.9787 47.5932 58.5255 46.5936 58.8763C46.2438 58.8095 46.3771 58.2416 45.944 58.275C45.944 58.6759 45.894 59.0266 45.4775 59.0433C45.1444 58.8262 45.9273 57.9911 45.1777 58.0579C44.8112 58.1915 45.111 58.9598 44.5946 58.9598C44.4614 58.7928 44.5447 58.1247 44.6613 57.8408C42.6789 57.2896 39.2806 56.5713 37.1983 57.5735ZM37.0151 59.0767C36.9817 58.8429 37.1483 58.7928 37.115 58.5757L36.6153 58.5924C36.532 58.9932 36.8318 58.9765 37.0151 59.0767ZM36.0988 60.747C36.1655 61.1645 36.532 61.2314 36.8818 61.3316C36.8152 61.0309 37.0983 61.0476 36.9817 60.6969C36.7985 60.5298 36.2654 60.5632 36.0988 60.747ZM35.9656 57.8741C36.0655 57.8407 36.2154 57.8574 36.2154 57.7405C36.1155 57.7739 35.9656 57.7572 35.9656 57.8741ZM35.8989 58.8763C36.2155 59.06 36.2488 58.442 35.9989 58.4921C35.9989 58.5757 35.9822 58.6425 35.8823 58.6258L35.8989 58.8763ZM36.0489 59.6279C35.8823 59.6279 35.9323 59.4108 35.7823 59.3941C35.4991 59.5444 35.9656 59.962 36.0489 59.6279ZM35.849 60.6301L35.8323 60.3795C35.5824 59.9787 35.2493 60.7804 35.849 60.6301ZM35.0993 57.7906C35.2326 57.7739 35.2992 57.9577 35.3492 57.7739C35.3326 57.657 35.116 57.6403 35.0993 57.7906ZM35.5325 62.0164C35.5158 61.7157 35.6157 61.1311 34.9827 61.0476C34.7162 61.4485 35.1826 61.8995 35.5325 62.0164ZM34.2997 61.9496C33.9666 62.3504 34.7495 62.317 34.7162 62.8014C35.0327 62.8014 35.0993 62.5843 35.1993 62.4005C34.7828 62.3671 34.7995 61.866 34.2997 61.9496ZM34.2831 59.0767C34.3497 59.3774 34.0665 59.3607 34.1831 59.7114C34.5829 59.8784 34.7495 58.9598 34.2831 59.0767ZM33.7 57.3564C34.0332 57.2562 33.9666 57.5902 34.2164 57.5902C34.0499 57.2061 34.0332 56.6549 33.6667 56.4878L33.7 57.3564ZM32.6006 57.5401C32.5006 58.2416 32.5339 58.9431 32.9337 59.3941C34.2997 59.0934 33.5501 57.2896 32.6006 57.5401ZM32.9837 60.6468C32.9504 60.7303 32.7005 61.1478 33.0004 61.1478C33.0337 61.0643 33.3002 60.6468 32.9837 60.6468ZM32.5506 53.7987C32.6839 53.782 32.7505 53.9658 32.8005 53.782C32.7838 53.6484 32.5673 53.6317 32.5506 53.7987ZM32.2841 56.3041C32.9337 56.3709 33.2503 56.1538 33.5168 55.8698C33.4835 55.3521 32.7838 54.7341 33.3169 54.3833C32.1508 52.7131 31.0347 55.469 32.2841 56.3041ZM32.0508 59.177C30.9181 58.6759 30.7348 60.4463 31.5011 60.8305C32.1508 60.7136 32.4007 59.8618 32.0508 59.177ZM31.801 61.9496C32.0842 61.6322 31.3845 61.6489 31.4178 61.8493C31.4178 61.8326 31.8509 61.8995 31.801 61.9496ZM31.2013 62.4673C31.2346 62.7847 31.4012 62.935 31.7177 62.935C31.7343 62.5843 31.3512 62.6511 31.2013 62.4673ZM31.2846 53.4814C31.7843 53.3478 32.1341 53.0638 32.2341 52.5628C31.8843 52.0283 31.6344 51.3936 31.0513 51.1263C29.752 51.427 30.8181 53.1139 31.2846 53.4814ZM30.7681 55.6193C31.2679 55.8865 31.2846 54.8343 30.8681 54.9846C30.968 55.3354 30.7015 55.3187 30.7681 55.6193ZM29.802 50.9259C30.0518 50.7422 30.2018 50.4917 30.2684 50.1576C29.8853 49.8904 29.7353 49.3392 29.1023 49.3392C28.8691 49.9906 29.1356 50.8758 29.802 50.9259ZM29.7686 53.0471C29.5188 53.6484 29.4521 54.5504 30.2184 54.6506C30.7681 54.1996 30.5516 53.0972 29.7686 53.0471ZM25.5541 56.2373C25.6707 55.9534 25.7373 55.6026 25.8872 55.3521C25.3708 55.2017 25.2709 56.0536 25.5541 56.2373ZM25.7206 57.1058C26.4869 57.0891 26.4869 56.3876 26.6535 55.8197C26.4703 55.803 26.437 55.6193 26.2704 55.5859C26.1871 56.1371 25.5041 56.6549 25.7206 57.1058ZM26.7701 58.3084C26.7202 58.8095 26.2704 58.9598 26.337 59.5778C26.9367 59.8116 27.1533 59.06 27.1533 58.4086C27.0033 58.4086 26.97 58.2583 26.7701 58.3084ZM27.0033 55.0514C26.9034 55.0848 26.7535 55.0681 26.7535 55.1851C26.8534 55.1516 27.0033 55.1683 27.0033 55.0514ZM25.9372 59.0934C26.1205 58.7427 26.3703 58.4587 26.5036 58.0746C26.337 58.0746 26.3203 57.9243 26.1204 57.9744C26.0871 58.275 25.5541 58.7761 25.9372 59.0934ZM26.6702 64.171C26.7035 64.0875 26.9534 63.6699 26.6535 63.6699C26.7868 63.9037 26.3037 64.1209 26.6702 64.171ZM27.12 60.296C26.7368 60.3127 26.4869 61.0643 26.6702 61.1979C26.7535 60.8305 27.02 60.6301 27.12 60.296ZM27.0533 61.6656C27.5364 61.5654 27.9196 60.747 27.5031 60.5132C27.5031 61.0309 26.97 61.081 27.0533 61.6656ZM27.5864 59.511C27.4864 59.5444 27.3365 59.5277 27.3365 59.6446C27.4365 59.6279 27.5864 59.6446 27.5864 59.511ZM27.6197 57.7739C27.5198 57.8073 27.3698 57.7906 27.3698 57.9076C27.4698 57.8741 27.6197 57.8909 27.6197 57.7739ZM27.6697 53.2643C27.753 51.6441 24.9377 51.8947 25.9539 53.9658C26.0871 53.782 26.0372 53.3979 26.4203 53.448C26.6202 54.1161 26.1205 54.1161 26.1038 54.5838C26.7535 54.1829 27.6197 54.0159 27.6697 53.2643ZM27.8363 57.0056C28.4526 56.9388 28.8025 56.6215 29.3022 56.4377C29.9852 55.3187 28.6525 53.9992 27.7363 55.018L27.8363 57.0056ZM28.0695 53.8823C28.1361 53.5816 28.4693 53.5315 28.5359 53.2308C28.1861 53.1974 27.8529 53.7987 28.0695 53.8823ZM28.8025 53.7152C28.8025 53.7987 28.7858 53.8656 28.6859 53.8488L28.7025 54.0994C29.019 54.2831 29.0357 53.6484 28.8025 53.7152ZM28.4526 59.7281C30.0019 59.8952 30.2018 57.5401 28.9857 57.7071C28.0029 57.824 28.6525 59.2939 28.4526 59.7281ZM28.4193 50.8591C27.5864 50.9927 27.7863 52.5294 28.5026 52.5962C29.3855 52.496 29.1689 50.9426 28.4193 50.8591ZM27.4032 50.2912C27.753 49.8069 28.386 49.5897 28.4526 48.8715C27.6863 47.3683 26.337 49.3225 27.4032 50.2912ZM26.4036 47.719C26.8201 48.0364 26.9534 47.8359 27.2699 47.552C27.3365 47.7023 27.4198 47.8359 27.5364 47.9195C27.5364 47.719 27.8696 47.8359 27.9029 47.6522C27.4698 47.2681 26.8368 47.1177 26.387 47.3516L26.4036 47.719ZM25.6374 49.9906C25.6707 50.6921 25.2376 51.4938 25.3542 51.878C26.8201 52.0784 27.1366 49.9238 25.6374 49.9906ZM26.1871 48.4706C26.0538 48.3036 25.9705 48.1032 25.7873 47.9863C25.5374 48.4873 24.7378 48.4539 24.8544 49.2724C25.4874 49.5897 26.0871 49.0051 26.1871 48.4706ZM24.5212 47.1678C25.3208 47.0342 25.071 47.4685 25.0543 48.0197C25.9039 48.003 25.6873 47.0008 26.1038 46.6C25.2709 46.2993 24.8378 46.4998 24.5212 47.1678ZM24.8877 55.018C24.5046 55.1851 24.3713 55.5692 24.3047 56.0369C24.7878 55.9701 24.6712 55.3521 24.8877 55.018ZM24.6045 57.1559C24.6379 57.323 24.1214 57.5568 24.5046 57.657C24.4713 57.5067 24.9044 57.1727 24.6045 57.1559ZM24.2547 46.934C24.1714 46.7503 24.7211 46.6 24.3547 46.5499C24.388 46.6835 23.8382 46.8338 24.2547 46.934ZM24.2047 48.6878C24.2547 48.4038 24.4213 48.0364 24.1714 47.8193C23.9382 47.8025 23.9049 47.9696 23.6883 47.9696C23.5884 48.504 23.9049 48.5876 24.2047 48.6878ZM23.5551 50.7088C23.9549 50.5752 23.7383 51.1096 24.0715 51.0595C24.2547 50.809 24.6878 49.9906 24.1381 49.8068C23.9882 50.1409 23.755 50.4081 23.5551 50.7088ZM24.0548 53.1974C24.1048 52.8467 24.338 52.663 24.388 52.3122C23.8049 52.0951 23.7716 52.997 24.0548 53.1974ZM24.0215 55.1851C24.0881 54.9178 24.2714 54.7675 24.3713 54.5504L23.8716 54.5671C23.9382 54.7508 23.755 55.2185 24.0215 55.1851ZM24.288 63.6699C24.8211 63.4695 24.8711 64.0708 25.1709 63.7534C25.1876 63.5196 25.021 63.4862 25.021 63.2691C24.5879 63.2357 24.4879 63.5029 24.288 63.6699ZM23.705 64.4382C24.2547 64.2378 24.0548 64.8391 24.4713 64.7723C24.7045 64.4549 24.4379 63.8369 24.0548 63.7868C23.9882 64.0708 23.8049 64.2211 23.705 64.4382ZM22.4223 63.6365C22.5889 63.6198 22.7055 63.6866 22.8054 63.7367L22.7888 63.3693L22.5389 63.386C22.5389 63.5029 22.4389 63.5196 22.4223 63.6365ZM22.1891 64.2712C22.0225 64.2712 22.0725 64.0541 21.9225 64.0374C21.8059 64.2879 22.1557 64.6053 22.1891 64.2712ZM21.8059 66.526C21.9225 66.359 21.9059 66.0584 22.0225 65.8913L21.656 65.908C21.7226 66.0918 21.5394 66.5594 21.8059 66.526ZM20.9563 66.9436C21.2229 67.0772 21.0729 67.6952 21.3728 67.7954C21.3062 67.3612 21.8725 66.9102 21.5727 66.6597C21.4727 66.9937 20.9563 66.4091 20.9563 66.9436ZM20.6565 65.9582C21.1896 66.025 21.023 65.2901 20.7398 65.2065C20.7564 65.4905 20.5565 65.574 20.6565 65.9582ZM20.0401 66.2421C20.39 66.2087 19.9235 67.0605 20.4399 66.8434C20.3566 66.6764 20.3067 65.7911 20.0401 66.2421ZM19.2905 76.6311C19.5237 73.4576 20.4732 70.3175 21.1229 67.9291C20.8397 68.4802 20.7898 66.9937 20.4899 67.5783C20.7564 67.5449 20.5732 68.0126 20.6398 68.1963C20.4233 68.4468 20.2733 68.0627 20.0235 68.3466C19.9568 68.6473 19.8735 68.9312 19.9402 69.3488C19.5237 69.3488 19.707 69.6327 19.2072 69.7496C19.5071 68.8978 19.1905 68.7141 19.1073 67.762C19.4571 67.762 19.3405 68.2798 19.7569 68.2297C19.9069 67.7119 20.1401 67.0271 19.557 66.7432C18.2244 69.0314 17.1082 71.5034 16.292 74.2593C16.5085 74.727 16.8417 75.0443 17.3248 75.2113C17.6413 74.7103 17.6247 73.8918 18.1244 73.5578C18.1244 74.4597 17.9911 75.2614 17.608 75.8293C18.191 76.0966 18.4409 76.6812 19.2905 76.6311ZM24.7545 68.2631C24.4046 68.1796 24.2547 67.8622 23.9715 67.6785C23.5884 68.4468 24.5712 68.831 24.3047 69.4156C23.7883 69.5993 23.9549 69.0147 23.655 68.9479C22.8721 69.7663 24.3547 70.2173 23.9882 70.9355C23.3885 70.5346 22.8721 70.067 22.6722 69.2485C23.4551 68.8644 23.7216 67.0939 23.2885 66.3423C24.4213 66.3089 24.0881 65.0061 23.5884 64.5886C21.3895 68.6807 19.4238 73.8083 20.1901 79.8546C21.0729 80.2054 21.556 80.9737 22.8554 80.8568C23.8382 76.8816 23.6717 71.8207 24.7545 68.2631ZM25.1543 66.3757C24.7045 66.526 24.7378 66.1252 24.5212 66.025C24.0548 66.6597 24.2547 67.4781 24.8544 67.8789C24.7711 67.2108 25.071 66.8935 25.1543 66.3757ZM25.3708 65.4905C24.971 65.6241 25.1043 65.1731 24.8544 65.1397C24.6212 65.4571 25.0376 65.908 25.1543 66.2421C25.3208 66.0751 25.2042 65.6575 25.3708 65.4905ZM25.3042 64.2378C25.1876 64.5886 25.2376 64.956 25.4708 65.2232C25.3875 64.9226 25.8872 64.2378 25.3042 64.2378ZM29.8686 65.908C29.7353 65.2567 29.5854 64.3046 29.0357 64.0708C27.9695 64.9226 28.436 67.1774 27.603 68.2631C27.1866 66.526 28.2694 64.9059 27.7696 63.8871L27.5198 63.9038C25.4541 69.0648 24.6212 75.2949 26.5702 80.9236C27.4365 80.9904 29.0523 81.4581 29.6687 80.7733C30.0852 80.3056 30.1518 78.3681 30.2517 77.249C30.5849 73.5411 30.5516 69.165 29.8686 65.908ZM30.3517 60.2626C29.8686 59.5277 28.969 60.2793 28.8857 60.9474C29.6021 60.7971 29.1523 61.6322 29.0523 61.8159C29.7353 61.532 30.3017 61.1311 30.3517 60.2626ZM30.2517 55.4022C30.2351 55.2519 30.2018 55.1015 29.9852 55.1683C30.0185 55.3187 29.9852 55.5191 30.1351 55.5358C30.1351 55.4523 30.1518 55.3855 30.2517 55.4022ZM30.9014 58.4921C31.7343 58.108 32.2841 56.4377 31.0347 56.1204L30.6682 56.1371C30.6016 56.9555 29.752 58.275 30.9014 58.4921ZM33.3335 62.7513C33.3335 62.9851 32.9337 62.8515 32.9837 63.1354C33.3002 63.0519 33.4335 63.1689 33.3669 63.4862C33.0004 63.8537 32.7005 63.3526 32.3674 63.2858C32.7505 64.622 33.5501 65.8245 33.4335 67.4781C33.0837 66.643 32.6839 65.858 32.4506 64.9059C32.2341 64.8391 31.7343 65.0896 31.701 64.8224C31.5678 64.4215 32.1008 64.622 32.1841 64.4215C32.0342 64.1209 32.0842 63.5697 31.651 63.5697C31.018 63.8202 31.1346 64.7055 31.118 65.3402C31.0347 67.428 31.2013 69.783 31.5511 72.0546C31.9009 74.2927 32.9504 79.9716 34.7828 80.1386C35.1993 80.172 35.799 80.2221 35.749 79.5874C35.7823 79.2366 35.0827 79.721 35.116 79.3703C35.6824 79.1197 35.7823 78.4683 36.0489 77.9506C36.3154 78.318 36.1655 79.1197 36.2488 79.6876C36.8318 79.6208 36.9817 79.1698 37.5981 79.1197C37.6481 73.04 36.0156 66.6931 33.3335 62.7513ZM40.0969 71.5368C40.53 72.3719 41.0964 74.0756 41.846 74.2092C42.5956 74.3428 43.5118 73.6079 43.9116 72.9899C43.845 72.8062 43.7117 72.6893 43.6451 72.5055C43.162 72.5389 42.8622 73.1736 42.529 72.6893C42.6956 72.3218 43.3119 72.3719 43.3619 71.9042C43.212 71.2361 42.0292 70.7852 42.529 70.2006C43.1287 70.5513 43.5285 71.1025 43.845 71.7539C44.1282 71.804 44.4947 71.3364 44.578 71.5869C44.3281 71.9878 43.945 72.2717 44.1449 73.1068C47.1267 73.2404 45.7108 70.5513 44.8445 69.3321C42.8455 66.4926 38.8641 63.5363 36.2821 61.866C36.2654 62.1166 35.9489 62.1333 35.9323 62.3838C36.9318 62.768 38.0979 63.6532 38.3977 64.3881C37.7813 64.1877 37.3982 63.9539 36.6486 64.2211C36.5653 63.8369 37.0151 63.9205 36.8651 63.4695C36.3654 63.4194 36.1655 63.9873 35.749 63.6532C35.7657 63.3192 36.2488 63.1521 35.9656 62.9016C35.5158 62.6845 35.4325 63.102 35.116 63.3192C36.4653 65.4905 38.5976 68.6807 40.0969 71.5368ZM42.9454 127.59C42.6456 127.44 42.9288 126.655 42.529 126.605C42.4957 127.056 42.7289 127.858 42.9454 127.59ZM24.1714 26.4734C23.9549 26.8242 23.5217 27.6259 23.7383 27.9934C24.0215 27.676 24.3547 26.7908 24.1714 26.4734ZM25.3875 25.7886C25.071 25.7886 25.0043 26.0058 24.7711 26.0726C25.0876 26.5068 24.338 27.2418 24.5879 27.5758C24.9377 27.0413 25.1709 26.4234 25.3875 25.7886ZM25.6873 26.6405C25.6873 26.1227 26.3204 25.5548 26.1204 25.2542C26.0372 25.7052 25.4208 26.2897 25.6873 26.6405ZM40.3634 18.3393C39.9803 18.2391 39.7637 17.9552 39.3472 17.8884C38.8808 18.5064 39.897 18.807 39.7637 18.9908C39.5638 19.4751 39.2639 19.091 38.8975 19.0241C37.9812 20.1766 36.9484 21.8469 35.6824 22.2978C36.6985 21.2289 37.7647 20.21 38.381 18.807C38.7475 18.6734 38.0812 18.64 38.2311 18.3226C38.6809 18.2224 38.8308 17.8383 38.9308 17.4207C38.6976 17.3706 38.6976 17.0699 38.2978 17.2036C35.9156 19.7924 32.1341 22.6486 28.9524 25.0036C27.7197 25.9223 25.7873 27.1416 25.8706 28.5112C27.1699 29.0122 27.5198 31.2504 28.7525 31.5009C30.8181 31.9185 33.8833 27.793 34.6329 26.8576C36.7652 24.252 39.114 21.279 40.3634 18.3393ZM26.5203 25.9891C26.9201 25.6884 28.0029 24.8366 27.5697 24.5694C27.3532 24.8867 27.2199 25.2876 26.8701 25.4713C26.8368 25.321 26.8701 25.1206 26.7202 25.1038C26.8534 25.5047 26.1538 25.7552 26.5203 25.9891ZM28.2028 24.7865C28.4693 24.3188 29.9186 23.9013 29.2522 23.3668C29.019 23.6507 28.7358 24.5694 28.4193 24.0349C28.386 24.2353 27.8696 24.6028 28.2028 24.7865ZM37.7147 4.24243C37.6148 4.22574 37.5648 4.14222 37.5814 3.9919C36.9817 4.24243 36.3987 4.49296 35.8823 4.82702C36.1821 4.89383 36.2321 5.22789 36.532 5.29471C36.8152 4.84373 37.4648 4.7268 37.7147 4.24243ZM33.7667 10.2887L34.5163 10.2553C34.5163 9.87117 34.1831 9.83777 33.8666 9.78766C33.8999 10.0215 33.7333 10.0716 33.7667 10.2887ZM33.117 7.06515C33.1503 7.3825 33.3169 7.53282 33.6334 7.53282C33.8166 7.41591 34.0165 7.33239 33.9832 7.01504C33.8 6.99833 33.7667 6.8146 33.6001 6.7812C33.5168 6.96493 33.3502 7.04846 33.117 7.06515ZM33.0837 6.44716C32.7005 6.43045 32.5173 6.19662 32.2008 6.11311C32.2341 6.46385 31.8343 6.41375 31.8509 6.7478C32.2841 6.93153 33.0337 7.14866 33.0837 6.44716ZM35.2826 5.59533C34.6829 5.76236 34.2664 6.09642 34.0832 6.6476C34.6829 6.96495 35.4158 5.94609 35.2826 5.59533ZM34.1331 7.64975C34.1165 8.05061 34.6995 8.084 34.8828 7.86686C34.9827 7.38249 34.3164 7.44932 34.1331 7.64975ZM34.2164 9.26988C34.5163 9.20308 34.4996 9.48701 34.8495 9.37008C34.8661 8.96924 34.6662 8.7855 34.3164 8.76881C34.3497 9.00264 34.1831 9.05275 34.2164 9.26988ZM34.5829 11.8755C34.5829 11.5581 34.9827 11.6082 35.3159 11.5915C35.3492 11.7418 35.3159 11.9423 35.4658 11.959C35.4492 11.6249 35.4825 11.2408 35.2992 11.0905C34.7162 10.9568 34.3664 11.675 34.5829 11.8755ZM36.1988 6.43046C35.6491 6.11311 35.2826 6.8146 34.9827 7.11525C35.5491 7.61633 35.8656 6.81462 36.1988 6.43046ZM35.8823 7.68315C36.1655 7.69984 36.5819 7.23218 36.3487 7.16537C36.3654 7.48272 35.8823 7.3658 35.8823 7.68315ZM36.7818 5.77905C37.1983 6.16321 38.0812 5.42831 38.2311 4.84372C37.5814 4.99405 36.9817 5.21116 36.7818 5.77905ZM40.7465 10.4557C41.2796 11.0571 43.3453 11.4245 43.212 9.9714C42.479 9.18638 41.0131 9.35339 40.7465 10.4557ZM42.3458 4.64329C42.3458 4.50967 42.1125 4.49296 42.0959 4.66C42.2291 4.64329 42.2958 4.82702 42.3458 4.64329ZM42.2125 12.6438C42.9288 13.3286 44.1115 12.744 44.5613 12.1594C44.0782 10.9401 42.479 11.7085 42.2125 12.6438ZM43.4952 8.21763C43.3952 8.25104 43.2453 8.23433 43.2453 8.35124C43.3619 8.31784 43.4952 8.33455 43.4952 8.21763ZM49.6421 14.5479C49.4922 14.932 49.0924 15.0823 48.9425 15.4498C49.5922 15.6001 49.8754 14.7984 49.6421 14.5479ZM49.7588 16.786C49.4922 16.6858 49.309 17.2203 49.5255 17.1702C49.5255 16.9697 49.8254 17.0533 49.7588 16.786ZM48.8592 16.3183C48.6426 16.7192 48.0429 16.7693 47.9097 17.237C48.0429 17.2537 48.1096 17.3706 48.1762 17.4708C48.5427 17.2871 49.3423 16.5355 48.8592 16.3183ZM48.4427 18.2224C48.0596 18.0888 47.9263 18.7736 48.2262 18.8571C48.2762 18.6066 48.576 18.6066 48.4427 18.2224ZM48.0429 14.9821C48.1262 14.5813 48.3428 14.314 48.4927 13.9633C47.9763 14.0468 47.893 14.5312 47.6598 14.8819C46.8935 14.9153 47.6764 15.0991 48.0429 14.9821ZM47.6931 18.0053C47.7931 17.9719 47.943 17.9886 47.943 17.8717C47.843 17.9051 47.6931 17.8884 47.6931 18.0053ZM47.7597 13.9967C48.1096 13.9967 48.0596 13.6292 48.2262 13.4789C47.843 13.4455 47.6764 13.6125 47.7597 13.9967ZM48.1929 12.6104L48.1762 12.2429C47.893 12.2262 47.7098 12.293 47.6931 12.5102C47.8597 12.5436 47.9263 12.6772 48.1929 12.6104ZM48.8092 12.7106C49.1257 12.7607 49.4922 12.2429 49.159 12.0759C49.2757 12.4935 48.6593 12.2429 48.8092 12.7106ZM49.2423 11.0571C49.1757 11.5581 48.4261 11.4245 48.5427 12.0926C48.9092 11.959 49.4922 11.3911 49.2423 11.0571ZM48.4927 10.9736C48.1762 11.4412 47.4932 11.5581 47.4266 12.2763C47.8597 12.0425 48.8925 11.174 48.4927 10.9736ZM47.6931 9.88789C46.627 9.60394 45.6774 10.3054 45.5109 11.2408C46.4271 11.8087 47.9097 11.1239 47.6931 9.88789ZM43.0287 19.3415C43.1787 19.3081 43.3786 19.3415 43.3952 19.1912C42.7289 19.3081 42.3791 19.091 41.896 19.0074C42.0626 19.4417 42.9621 19.7424 43.1787 19.6922C43.0121 19.6922 43.0121 19.5252 43.0287 19.3415ZM41.846 15.3997C41.6961 15.4331 41.4962 15.3997 41.4795 15.55C41.6294 15.5166 41.8293 15.55 41.846 15.3997ZM43.6784 17.3205C43.4286 17.1034 43.3619 17.3205 43.0621 17.3539C43.0621 17.571 43.112 17.7381 43.212 17.8383C43.5118 17.8049 43.6784 17.6378 43.6784 17.3205ZM44.2115 15.55L44.1948 15.0489C43.3619 14.9988 43.1287 15.4999 42.6123 15.7505C42.579 16.1513 42.9455 16.0845 43.1287 16.2181C43.262 15.6335 43.5785 15.216 44.2115 15.55ZM44.0782 18.0387C44.578 18.0554 44.628 17.6712 44.9278 17.5042C44.7612 17.5209 44.6446 17.4541 44.5447 17.404C44.478 17.688 44.1615 17.7547 44.0782 18.0387ZM45.0278 19.4918C44.7779 19.258 44.4447 19.4584 44.1615 19.5252C44.1449 20.0597 44.9278 19.6421 45.0278 19.4918ZM44.2115 20.7946C44.6113 20.6443 45.2776 20.7278 45.311 20.2434C45.0777 19.8927 44.6446 20.3436 44.3114 20.2935C44.3281 20.494 44.2948 20.6777 44.2115 20.7946ZM46.2105 12.9444C46.2771 13.5123 45.7108 13.529 45.6441 13.9633C46.527 13.9633 46.7269 13.362 46.8269 12.6605C46.0939 12.577 44.5946 12.8275 44.3947 13.8965C45.2277 14.1971 45.4775 13.1282 46.2105 12.9444ZM46.7269 15.9175C46.5603 15.9175 46.5437 15.7672 46.3438 15.8173C46.1439 16.0344 46.2605 16.4687 46.5104 16.5522C46.477 16.2515 46.6769 16.168 46.7269 15.9175ZM45.7441 16.3517C45.7441 16.6691 45.211 16.5021 45.3942 16.9864C45.6441 16.9029 46.2105 17.1034 46.2605 16.8194C45.9773 16.786 45.9773 16.452 45.7441 16.3517ZM45.3776 19.2413C45.9273 19.5586 46.4604 19.0074 46.7269 18.6734C46.1938 18.7736 45.6608 18.8905 45.3776 19.2413ZM45.794 20.0931C46.1106 20.2935 47.2267 19.6923 47.0101 19.4083C46.7936 19.8092 45.844 19.5419 45.794 20.0931ZM46.8935 14.1637C46.9601 14.4644 46.6769 14.4476 46.7935 14.7984C47.1767 14.8318 47.2766 14.1804 46.8935 14.1637ZM45.894 8.71872C45.3776 8.01721 44.1282 8.55168 43.795 9.06946C44.0782 9.10286 43.8284 9.73756 44.0782 9.80438C45.0444 9.77096 45.6275 9.38681 45.894 8.71872ZM41.4295 11.675C41.6294 11.675 41.5461 11.9924 41.8127 11.9089C41.896 11.6416 41.3796 11.4579 41.4295 11.675ZM39.7304 15.4999C39.6971 15.5834 39.4472 16.001 39.747 16.001C39.6304 15.7672 40.1135 15.5667 39.7304 15.4999ZM39.5805 14.8819C39.2639 14.9153 38.9474 14.932 38.9808 15.2828C39.2639 15.2327 39.4972 15.1325 39.5805 14.8819ZM40.4134 11.5915C39.3972 11.3911 38.8308 11.8588 38.5976 12.6772C38.9641 12.8108 39.0307 12.0592 39.214 12.3933C39.3139 12.7774 39.0141 12.7774 39.1307 13.1449C40.0969 13.1449 40.8298 12.4935 40.4134 11.5915ZM40.4134 14.2138C40.4134 13.8965 40.8965 14.0134 40.8798 13.696C40.6299 13.7128 40.0469 14.0301 40.4134 14.2138ZM41.3462 7.3157C40.5966 7.3324 40.1968 7.69984 39.7637 8.01719C39.9636 8.11741 39.7304 8.20093 39.9136 8.50157C40.8298 9.00264 42.1459 8.28444 41.3462 7.3157ZM41.746 5.4116C40.8465 4.7101 40.1968 5.87929 39.9303 6.49727C40.5633 6.56408 42.0459 6.58078 41.746 5.4116ZM40.4633 4.47627C40.3634 4.50967 40.2135 4.49296 40.2135 4.60988C40.3134 4.57647 40.4633 4.60989 40.4633 4.47627ZM40.43 3.74136C40.1302 3.82487 39.5138 3.62445 39.4472 3.90838C39.6304 4.0587 40.43 4.10881 40.43 3.74136ZM39.1973 9.40352C38.8641 9.70416 38.1978 10.3221 38.381 10.6896C38.4977 10.8232 39.6304 10.8232 39.8636 10.3722C39.9303 9.73755 39.5638 9.58723 39.1973 9.40352ZM38.4477 9.4369C38.431 9.73755 37.6481 9.97139 37.9812 10.2052C38.0645 9.95468 38.7808 9.67074 38.4477 9.4369ZM39.3806 5.27798C39.2306 5.31138 39.0307 5.27798 39.0141 5.42831C39.164 5.3949 39.3639 5.4283 39.3806 5.27798ZM38.9808 4.79362C38.9474 4.55978 38.8808 4.37605 38.7142 4.30925C38.531 4.50967 38.5976 4.87713 38.9808 4.79362ZM38.1645 8.45146C38.8808 8.66859 39.164 7.85019 38.8641 7.54954C38.7142 7.9337 38.3144 8.084 38.1645 8.45146ZM38.6476 5.69554C38.0479 5.81247 37.5814 6.063 37.3149 6.51397C37.9146 6.38035 38.2811 6.0296 38.6476 5.69554ZM40.7799 16.5689C40.7632 16.8194 40.4467 16.8361 40.43 17.0867C40.8132 17.237 41.113 16.7025 40.7799 16.5689ZM41.3129 14.7984C41.6128 14.3641 42.3291 14.2973 42.2458 13.5123C41.9626 13.3286 41.5795 13.9299 41.2463 13.4288C41.1297 13.9633 40.6966 14.1971 40.5633 14.7149C40.9464 14.598 41.0297 14.8151 41.3129 14.7984ZM43.6951 20.5608C42.7955 20.6276 41.6628 19.0074 41.4462 20.2935C42.2125 20.4438 43.262 20.3102 43.4785 21.0786C42.8955 21.1955 42.0126 20.7445 41.213 20.6777C40.2968 22.7488 39.064 24.536 38.2478 26.6906C36.9318 28.7116 35.4325 30.5656 34.433 32.8538C34.6829 33.5386 36.1488 33.572 36.6985 33.4885C36.4653 33.3549 36.0988 33.3716 36.1655 32.8872C36.9151 32.8037 37.4149 32.9874 37.4482 33.7056C37.215 33.7725 36.6486 33.4718 36.9484 33.7223C38.0479 34.3904 39.2639 35.1755 40.3301 34.3069C42.9954 32.169 43.6618 25.1205 43.6951 20.5608ZM47.5432 20.1265C47.0101 20.3436 45.7441 20.4271 46.0939 21.0618C46.3771 21.2623 47.26 20.377 47.8264 20.8614C47.5099 21.4126 46.4604 21.279 46.1272 21.8135C46.3937 21.78 46.2105 22.2477 46.2771 22.4315C46.5603 22.7655 46.9601 21.7801 47.3933 22.2477C47.2766 22.6987 46.627 22.6486 46.4271 23.0494C46.9268 24.0015 47.0934 25.939 46.6103 26.9077C46.5104 25.2375 46.2771 23.8345 45.7441 21.8302C45.5608 21.7634 45.111 22.0139 45.111 21.7299C45.1777 21.4126 45.8607 21.3625 45.4442 20.9616C45.3109 20.8113 44.5447 21.0786 44.3448 21.2623C44.8945 25.2375 42.9954 28.7951 43.5118 32.6701C46.9768 32.1523 48.6593 31.4842 49.0424 28.4109C49.3923 25.6383 48.7759 21.9137 47.5432 20.1265ZM50.0253 17.1367C49.8754 17.6044 49.0924 18.1055 49.3423 18.5398C49.4756 18.189 49.992 17.7882 50.3085 17.9886C49.8254 18.3895 49.6421 19.0408 48.9925 19.2914C48.9591 19.0742 49.0924 18.6567 48.7259 18.807C48.2595 19.3081 48.8925 20.0263 49.1757 20.5274C49.9253 21.8469 50.4084 23.4336 51.3413 24.3021C51.941 22.9826 53.6901 21.7299 53.5236 20.21C53.3903 19.0074 51.0748 17.5209 50.0253 17.1367ZM50.9415 12.9778C50.7749 13.5123 51.5912 12.9611 51.5745 13.3286C51.7744 13.9132 51.2747 14.4811 51.6411 14.8318C51.6911 14.4477 51.6245 13.9466 52.0909 13.9299C52.1242 14.0301 52.2075 14.0635 52.3408 14.0468C52.2742 14.4978 52.1576 15.5166 51.5579 15.834L51.5245 15.0824C51.0248 15.1826 51.1914 15.9008 50.5584 15.8841C50.4917 15.3663 50.9915 14.932 50.625 14.5145C50.1086 14.6314 50.1086 15.2327 49.9253 15.6669C51.1581 16.0177 51.6245 17.2036 52.9905 17.404C53.0071 15.8173 53.1737 12.8442 50.9415 12.9778ZM50.625 14.1136C51.0081 14.2472 51.1414 13.5624 50.8415 13.4789C50.8749 13.7963 50.675 13.8798 50.625 14.1136ZM50.9582 7.86687C50.8582 7.90027 50.7083 7.88357 50.7083 8.0005C50.8082 7.96708 50.9582 7.98378 50.9582 7.86687ZM51.3746 6.21333C50.675 6.36366 49.8587 6.41376 49.7921 7.16537C50.625 7.58293 51.7911 6.91484 51.3746 6.21333ZM51.8077 7.3157C51.8077 7.66646 51.6078 7.85017 51.6078 8.20091C52.0576 8.35124 52.0576 7.44932 51.8077 7.3157ZM50.575 5.12767C51.6078 4.76022 51.7744 5.57864 52.4408 5.04416C51.9743 4.6934 52.1409 4.44287 51.7744 3.95849C50.8249 3.87498 49.9087 4.44287 50.575 5.12767ZM49.7421 3.17348L49.992 3.15677L49.9753 2.90623L49.7254 2.92293L49.7421 3.17348ZM49.7088 5.17776C49.0424 5.24458 48.5427 5.46171 48.2428 5.86256C48.4261 6.43045 49.3756 6.17993 49.7421 5.91269L49.7088 5.17776ZM48.0429 4.25914C48.7093 4.54307 49.4089 4.15892 49.2423 3.32379C48.9925 3.3405 49.0758 2.98974 48.7259 3.08996C48.6093 3.57432 48.4927 4.0587 48.0429 4.25914ZM48.0263 9.00264C48.7259 9.10286 49.6755 9.20308 49.6088 8.30115C48.9591 8.05061 48.1096 8.36795 48.0263 9.00264ZM47.8097 7.13197C46.9601 7.06517 46.6936 7.54951 46.3604 7.95038C46.9768 8.25102 47.943 7.91699 47.8097 7.13197ZM46.0439 3.84157C46.3271 4.0921 46.6436 3.67456 47.16 3.79147C47.1434 3.40732 47.3933 3.29039 47.4932 3.02315C46.7935 3.10666 46.4937 3.55763 46.0439 3.84157ZM45.6441 5.97949C46.1605 6.07971 46.9102 6.14653 47.3766 5.89598C47.5432 5.39491 47.4266 4.89383 47.3266 4.64329C46.3271 4.71011 45.6608 5.04416 45.6441 5.97949ZM46.0439 6.71441C45.8773 6.71441 45.8607 6.56407 45.6608 6.61418C45.4942 6.93153 46.1106 6.96495 46.0439 6.71441ZM43.112 5.22789C43.8617 5.22789 44.6946 5.41162 45.0944 4.89383C45.2277 2.93965 43.0787 4.19233 43.112 5.22789ZM42.579 7.13197C43.1287 8.05061 45.111 7.48272 45.0278 6.39706C44.5113 5.74566 42.3458 5.9628 42.579 7.13197ZM39.1807 3.54094C39.9469 3.42402 41.9626 2.43857 42.1792 3.65785C41.6794 3.75805 40.8465 3.55763 40.5633 3.85827C40.6633 4.10881 41.2963 3.74136 41.1963 4.20904C41.6794 4.17563 41.746 3.75807 42.2958 3.79147L42.2625 3.03987C41.1963 2.50538 39.3972 3.3071 38.9974 2.57219C39.9469 2.40516 41.4129 2.33835 42.0959 2.30494C40.8632 0.785017 36.6819 1.83728 39.1807 3.54094ZM37.9479 3.9752L38.4477 3.95849C38.5143 3.45743 37.898 3.57434 37.9479 3.9752ZM32.7172 1.10235C33.2503 2.70579 34.7162 3.25699 35.7324 4.32594C36.1821 4.14222 36.6153 3.94179 36.9484 3.64114C36.9651 3.3071 36.2488 3.10666 36.5486 2.90623C36.9484 3.05656 37.4482 3.59105 37.9313 3.22358C37.115 1.43641 34.9661 0.534467 32.7172 1.10235ZM31.7177 6.38035C31.7343 6.28015 31.701 6.12982 31.8343 6.12982C31.701 5.54524 30.9347 5.62875 30.7848 5.06086C31.3345 5.16107 31.701 5.445 32.1841 5.61203C32.6339 5.22787 32.9837 4.12552 33.75 4.40945C33.4002 4.92723 32.9837 5.3782 32.5673 5.84587C32.9837 5.91267 33.2003 6.19664 33.5834 6.29684C33.8333 5.84588 34.2331 5.54522 34.6496 5.24458C33.117 3.14007 29.8853 1.23599 26.6702 2.23813C27.4365 2.22143 27.6197 2.83943 28.5526 2.6557C28.436 3.27369 29.069 3.05655 29.0856 3.50752C28.3527 3.14006 27.4031 3.52421 26.97 3.60772C26.8201 3.15677 27.4198 3.39061 27.3199 2.97305C26.7868 2.77261 26.2037 2.62228 25.6707 2.42186C25.2709 2.7225 24.6545 3.10666 25.1209 3.82487C27.3199 4.59318 29.5354 6.02961 31.7177 6.38035ZM32.0175 10.1217C31.9009 9.68744 32.1841 9.63734 32.1008 9.23648C31.2512 8.80221 29.7187 9.15297 29.0856 8.50157C30.3184 8.40135 31.2846 8.61848 32.2174 8.85232C32.6172 8.7855 32.5506 8.28444 33.067 8.31785C33.4835 8.50157 32.5506 8.91913 33.2169 8.93583C33.5501 9.31999 33.8666 8.66859 33.9333 8.40136C30.4516 7.14868 23.1719 3.79147 20.1901 7.54954C21.8726 7.24888 24.1381 6.88144 25.5541 7.80008C24.6378 7.9337 24.0881 7.66644 23.1886 7.78335C22.9387 8.03389 22.4556 8.6853 22.2224 8.58508C22.0225 8.20092 22.7555 7.81677 22.1891 7.83346C21.4728 8.1007 21.5727 9.10286 20.7564 9.26988C20.6731 8.6853 21.1562 8.60179 21.073 8.0005C20.6232 8.01719 20.0734 8.15083 19.9402 7.80008C19.707 8.23434 19.4571 8.96925 19.7736 9.55383C23.8549 9.75427 28.2694 9.57052 32.0175 10.1217ZM33.3502 9.4369C32.9671 9.53712 32.9671 9.23648 32.6006 9.35339C32.7505 9.83777 32.2507 9.73756 32.4007 10.2386L33.2669 10.2052C33.1503 9.80435 33.4502 9.80436 33.3502 9.4369ZM35.8823 13.0614C35.1493 12.7607 34.1332 12.2095 32.8505 12.2095C31.2013 12.1928 29.4355 13.0614 28.1528 12.9277C29.8186 12.0759 32.0508 11.5581 34.1998 11.7753L34.1665 11.0236C33.6501 10.6395 33.3169 11.2241 32.9337 11.3243C32.7338 11.2408 32.9337 10.7063 32.5339 10.8399C31.0847 10.7063 29.1689 11.174 27.5864 11.4412C24.0548 12.0425 17.8745 12.7941 18.7241 16.2181C19.7903 16.1513 20.5399 15.1826 21.556 15.4665C20.7898 15.9676 20.0568 16.4854 18.9906 16.7025C19.0406 17.9552 19.1905 19.091 19.8735 19.6588C24.1881 16.5689 29.7686 14.147 35.8823 13.0614ZM27.5198 23.3167C30.385 21.8469 32.2841 20.3938 34.533 18.7402C35.6491 17.9218 37.1483 17.1869 37.3982 15.9843C36.1821 14.9487 34.2164 16.7693 33.067 16.5689C34.0332 15.8674 35.066 15.216 36.7319 15.1492C36.1488 13.3787 33.9499 14.4644 32.6006 14.8485C30.6849 15.383 28.9191 16.3684 27.5697 16.4519C27.0533 17.0031 25.8539 17.237 25.0043 17.6879C24.0381 18.2224 20.8231 20.2267 20.8064 21.2623C20.7898 22.3981 22.5056 23.2499 22.5889 24.6696C23.9215 25.154 26.0372 24.085 27.5198 23.3167ZM22.7721 28.5279C23.2385 28.5446 23.3718 27.6593 23.0886 27.3921C23.1719 27.9266 22.7721 28.0435 22.7721 28.5279ZM21.8226 29.3296C22.3723 28.9621 22.389 28.1103 22.6055 27.4255C21.8892 27.8097 21.9892 28.9955 21.8226 29.3296ZM6.41354 54.1328C6.44685 54.3165 6.39689 54.6005 6.56347 54.6172C6.48018 54.4 6.91329 54.0827 6.41354 54.1328ZM4.24795 63.9706C4.19797 63.3693 4.63109 62.5843 4.41453 62.2168C4.39787 62.8181 3.78151 63.6532 4.24795 63.9706ZM9.61196 152.744C9.57864 152.31 9.37873 152.043 9.19549 151.759C9.17884 152.26 9.37873 152.527 9.61196 152.744ZM10.3116 164.954C10.4449 164.77 10.2949 164.102 9.89514 164.102C9.89514 164.52 10.1617 164.67 10.3116 164.954ZM10.1117 166.09C10.1117 166.49 10.145 166.841 10.3949 166.958C10.5448 166.574 10.3782 166.323 10.1117 166.09ZM10.3283 162.699C10.145 162.382 10.2783 161.714 9.77854 161.73C9.89514 162.131 9.89514 162.666 10.3283 162.699ZM55.7724 119.506C56.0556 120.425 55.889 121.912 56.039 122.613C56.1056 122.446 56.2888 122.362 56.5221 122.346C56.1556 121.511 56.2722 120.158 55.7724 119.506ZM55.1394 116.667C55.356 117.352 55.1894 118.538 55.8724 119.005C55.7724 118.053 55.939 116.817 55.1394 116.667ZM54.3232 112.575C54.6063 113.878 54.6896 115.398 55.1228 116.533C55.4226 115.698 54.8396 114.045 54.5897 113.193C54.5397 112.992 54.7896 112.257 54.3232 112.575ZM49.8754 126.638C51.5912 125.469 53.3736 124.35 55.0728 123.148C54.5564 121.761 52.8572 121.644 52.2075 120.408C53.5069 120.625 54.2565 121.477 55.2727 122.012C55.7058 119.623 52.3241 119.69 52.3408 117.786C52.9405 118.087 53.207 118.738 54.0066 118.838C54.3065 119.072 55.0061 120.124 55.1727 119.657C54.9229 118.888 54.7063 118.07 54.5564 117.185C53.4403 116.533 52.1576 115.364 51.8077 114.312C52.8739 114.412 53.6068 116.233 54.2565 115.949C54.4231 112.909 51.8077 112.308 51.0248 110.738C51.258 116.032 51.0081 121.594 49.8754 126.638ZM49.1257 129.177C50.3251 127.774 51.8744 126.688 53.307 125.486C53.6235 125.486 53.7068 125.703 53.9233 125.452C56.1889 123.816 59.0042 121.427 60.6367 120.024C58.8376 121.427 56.6054 122.964 54.2399 124.45C52.5907 125.486 49.2756 127.423 49.1257 129.177ZM9.7119 176.345L9.21214 176.362C9.32875 176.796 9.04556 176.846 9.12885 177.247C9.52866 177.113 9.37873 176.512 9.7119 176.345ZM19.0406 170.532C19.8069 170.7 20.34 171.802 20.9563 171.685C20.3899 171.351 19.8236 169.781 19.0406 170.532ZM32.8838 168.261C31.2179 168.395 29.4022 167.593 28.1528 168.111C30.0851 168.077 31.3845 168.578 32.8838 168.261Z" fill="#BFD3B6" fill-opacity="0.6"/>
<path d="M4.84767 181.473C4.88099 181.506 4.91431 181.523 4.94763 181.556C4.96429 181.573 4.9976 181.589 5.01426 181.606C4.9976 181.489 4.98094 181.389 4.96428 181.272C4.93097 181.022 5.23082 180.921 5.41406 181.038C5.33077 180.821 5.24748 180.621 5.14753 180.404C5.04758 180.771 4.94762 181.122 4.84767 181.473Z" fill="#BFD3B6" fill-opacity="0.6"/>
<path d="M27.5864 19.4417C27.5198 19.2245 27.753 19.1076 27.5698 19.0742C25.754 20.3937 23.3885 21.2121 21.756 22.7154C22.9554 22.849 23.7883 21.78 24.6712 21.2121C25.6707 20.5774 26.6536 20.0597 27.5864 19.4417Z" fill="#BFD3B6" fill-opacity="0.6"/>
</g>
<defs>
<clipPath id="clip0_120_14589">
<rect width="202" height="93.1206" fill="white" transform="matrix(4.37114e-08 -1 -1 -4.37114e-08 93.1206 202)"/>
</clipPath>
</defs>
</svg>
